<svg width="30" height="32" viewBox="0 0 30 32" fill="none" xmlns="http://www.w3.org/2000/svg">
    <path
            d="M28.1091 19.5586C27.6488 19.1006 27.2838 18.5559 27.0353 17.9559C26.7868 17.356 26.6597 16.7127 26.6614 16.0633V11.9975C26.6614 8.81556 25.3974 5.76395 23.1474 3.51398C20.8975 1.26402 17.8459 0 14.6639 0C11.482 0 8.43038 1.26402 6.18042 3.51398C3.93045 5.76395 2.66643 8.81556 2.66643 11.9975V16.0633C2.66813 16.7127 2.54105 17.356 2.29256 17.9559C2.04407 18.5559 1.67909 19.1006 1.21873 19.5586C0.636818 20.1404 0.24052 20.8818 0.0799615 21.6889C-0.0805973 22.496 0.00179422 23.3326 0.316716 24.0928C0.631638 24.8531 1.16494 25.5029 1.84919 25.96C2.53343 26.4172 3.33788 26.6612 4.16079 26.6611H8.13196C8.43791 28.1678 9.25536 29.5225 10.4458 30.4955C11.6362 31.4685 13.1264 32 14.6639 32C16.2014 32 17.6916 31.4685 18.8821 30.4955C20.0725 29.5225 20.8899 28.1678 21.1959 26.6611H25.1684C25.9913 26.6612 26.7957 26.4172 27.48 25.96C28.1642 25.5029 28.6975 24.8531 29.0125 24.0928C29.3274 23.3326 29.4098 22.496 29.2492 21.6889C29.0887 20.8818 28.6924 20.1404 28.1104 19.5586H28.1091ZM14.6639 29.3272C13.8398 29.3238 13.0368 29.0658 12.3648 28.5886C11.6929 28.1113 11.1848 27.4381 10.91 26.6611H18.4178C18.1431 27.4381 17.635 28.1113 16.963 28.5886C16.2911 29.0658 15.4881 29.3238 14.6639 29.3272ZM25.1671 23.995H4.16079C3.8651 23.9952 3.57601 23.9076 3.3301 23.7434C3.08419 23.5792 2.89252 23.3458 2.77934 23.0726C2.66617 22.7995 2.63657 22.4988 2.6943 22.2089C2.75204 21.9189 2.8945 21.6525 3.10367 21.4435C3.81239 20.7386 4.37429 19.9001 4.75687 18.9766C5.13945 18.0531 5.33511 17.0629 5.33254 16.0633V11.9975C5.33254 9.52266 6.31567 7.14918 8.06564 5.39921C9.81561 3.64923 12.1891 2.66611 14.6639 2.66611C17.1388 2.66611 19.5122 3.64923 21.2622 5.39921C23.0122 7.14918 23.9953 9.52266 23.9953 11.9975V16.0633C23.9927 17.0629 24.1884 18.0531 24.571 18.9766C24.9536 19.9001 25.5155 20.7386 26.2242 21.4435C26.4333 21.6525 26.5758 21.9189 26.6335 22.2089C26.6913 22.4988 26.6617 22.7995 26.5485 23.0726C26.4353 23.3458 26.2437 23.5792 25.9977 23.7434C25.7518 23.9076 25.4627 23.9952 25.1671 23.995Z"
            fill="black"/>
</svg>