<svg width="19" height="22" viewBox="0 0 19 22" fill="none" xmlns="http://www.w3.org/2000/svg">
    <path
            d="M18.3499 0H3.42136C2.52321 0.00027481 1.66128 0.354126 1.02201 0.985008C0.382751 1.61589 0.017556 2.47308 0.00542857 3.37114L0 3.36436V18.2929C0.000179904 19.2003 0.360701 20.0704 1.00229 20.712C1.64388 21.3536 2.51401 21.7141 3.42136 21.7143H14.9571C15.7062 21.7143 16.2857 21.1063 16.2857 20.3571V6.10714C16.2857 5.73257 16.0102 5.42857 15.6356 5.42857H3.42136C2.28271 5.42857 1.35714 4.55864 1.35714 3.42136C1.35768 2.87406 1.57533 2.34933 1.96233 1.96233C2.34933 1.57533 2.87406 1.35768 3.42136 1.35714H17.6429V16.9643C17.6429 17.3389 17.9754 17.6429 18.3499 17.6429C18.7245 17.6429 19 17.3389 19 16.9643V0.678571C19 0.304 18.7245 0 18.3499 0ZM3.42136 6.78571H14.9299L14.9571 20.3571H3.42136C2.87406 20.3566 2.34933 20.139 1.96233 19.752C1.57533 19.365 1.35768 18.8402 1.35714 18.2929V6.12207C1.92714 6.54007 2.63964 6.78571 3.42136 6.78571V6.78571Z"
            fill="#121212"/>
</svg>