<svg width="19" height="21" viewBox="0 0 19 21" fill="none" xmlns="http://www.w3.org/2000/svg">
    <path
            d="M16.625 7.12504H0.791667C0.581704 7.12504 0.38034 7.04163 0.231874 6.89317C0.0834076 6.7447 0 6.54334 0 6.33337V2.37504C0 2.16508 0.0834076 1.96371 0.231874 1.81525C0.38034 1.66678 0.581704 1.58337 0.791667 1.58337H16.625C16.835 1.58337 17.0363 1.66678 17.1848 1.81525C17.3333 1.96371 17.4167 2.16508 17.4167 2.37504V6.33337C17.4167 6.54334 17.3333 6.7447 17.1848 6.89317C17.0363 7.04163 16.835 7.12504 16.625 7.12504ZM1.58333 5.54171H15.8333V3.16671H1.58333V5.54171Z"
            fill="#121212"/>
    <path
            d="M13.4583 4.75C13.2484 4.75 13.047 4.66659 12.8985 4.51813C12.7501 4.36966 12.6667 4.1683 12.6667 3.95833V0.791667C12.6667 0.581704 12.7501 0.38034 12.8985 0.231874C13.047 0.0834075 13.2484 0 13.4583 0C13.6683 0 13.8697 0.0834075 14.0181 0.231874C14.1666 0.38034 14.25 0.581704 14.25 0.791667V3.95833C14.25 4.1683 14.1666 4.36966 14.0181 4.51813C13.8697 4.66659 13.6683 4.75 13.4583 4.75ZM3.95833 4.75C3.74837 4.75 3.54701 4.66659 3.39854 4.51813C3.25008 4.36966 3.16667 4.1683 3.16667 3.95833V0.791667C3.16667 0.581704 3.25008 0.38034 3.39854 0.231874C3.54701 0.0834075 3.74837 0 3.95833 0C4.1683 0 4.36966 0.0834075 4.51813 0.231874C4.66659 0.38034 4.75 0.581704 4.75 0.791667V3.95833C4.75 4.1683 4.66659 4.36966 4.51813 4.51813C4.36966 4.66659 4.1683 4.75 3.95833 4.75Z"
            fill="#121212"/>
    <path
            d="M9.5 19H2.375C1.74511 19 1.14102 18.7498 0.695621 18.3044C0.250223 17.859 0 17.2549 0 16.625V2.37504C0 2.16508 0.0834076 1.96371 0.231874 1.81525C0.38034 1.66678 0.581704 1.58337 0.791667 1.58337H16.625C16.835 1.58337 17.0363 1.66678 17.1848 1.81525C17.3333 1.96371 17.4167 2.16508 17.4167 2.37504V11.0834C17.4167 11.2933 17.3333 11.4947 17.1848 11.6432C17.0363 11.7916 16.835 11.875 16.625 11.875C16.415 11.875 16.2137 11.7916 16.0652 11.6432C15.9167 11.4947 15.8333 11.2933 15.8333 11.0834V3.16671H1.58333V16.625C1.58333 16.835 1.66674 17.0364 1.81521 17.1848C1.96367 17.3333 2.16504 17.4167 2.375 17.4167H9.5C9.70996 17.4167 9.91133 17.5001 10.0598 17.6486C10.2083 17.797 10.2917 17.9984 10.2917 18.2084C10.2917 18.4183 10.2083 18.6197 10.0598 18.7682C9.91133 18.9166 9.70996 19 9.5 19Z"
            fill="#121212"/>
    <path
            d="M13.4583 20.5833C12.3623 20.5833 11.2909 20.2583 10.3795 19.6494C9.46823 19.0405 8.75794 18.175 8.3385 17.1624C7.91907 16.1498 7.80932 15.0355 8.02315 13.9605C8.23697 12.8856 8.76477 11.8981 9.53978 11.1231C10.3148 10.3481 11.3022 9.82031 12.3772 9.60648C13.4522 9.39266 14.5664 9.5024 15.579 9.92184C16.5916 10.3413 17.4571 11.0516 18.0661 11.9629C18.675 12.8742 19 13.9456 19 15.0417C19 16.5114 18.4161 17.921 17.3769 18.9602C16.3376 19.9995 14.9281 20.5833 13.4583 20.5833ZM13.4583 11.0833C12.6754 11.0833 11.9101 11.3155 11.2592 11.7504C10.6083 12.1854 10.1009 12.8036 9.80131 13.5269C9.50171 14.2502 9.42332 15.0461 9.57606 15.8139C9.72879 16.5817 10.1058 17.2871 10.6594 17.8406C11.213 18.3942 11.9183 18.7712 12.6861 18.9239C13.4539 19.0767 14.2498 18.9983 14.9731 18.6987C15.6964 18.3991 16.3146 17.8917 16.7496 17.2408C17.1845 16.5899 17.4167 15.8246 17.4167 15.0417C17.4167 13.9919 16.9996 12.985 16.2573 12.2427C15.515 11.5004 14.5081 11.0833 13.4583 11.0833Z"
            fill="#121212"/>
    <path
            d="M15.8333 15.8333H13.4583C13.2484 15.8333 13.047 15.7499 12.8985 15.6015C12.7501 15.453 12.6667 15.2516 12.6667 15.0417V11.875H14.25V14.25H15.8333V15.8333Z"
            fill="#121212"/>
</svg>