<svg width="135" height="105" viewBox="0 0 135 105" fill="none" xmlns="http://www.w3.org/2000/svg">
    <path fill-rule="evenodd" clip-rule="evenodd"
          d="M33.5088 58.2595C34.2724 63.9864 35.0359 69.7133 35.7996 75.4402L36.4162 80.0649C36.494 80.6485 36.4205 81.7996 36.7171 82.3221C36.8218 82.5063 37.0971 82.5939 37.2995 82.7025C37.9963 83.0766 38.6931 83.4507 39.3898 83.8248C45.2838 86.9891 51.1777 90.1535 57.0713 93.3178C62.7277 96.3545 68.3842 99.3915 74.0404 102.428C74.6258 102.743 75.5726 103.563 76.2044 103.346C76.8051 103.141 77.419 102.635 77.9643 102.315C79.0111 101.702 80.0578 101.088 81.1046 100.475C87.4388 96.7628 93.7728 93.0505 100.107 89.3385C102.72 87.807 105.334 86.2755 107.947 84.7439C108.662 84.3249 109.377 83.9059 110.092 83.4867C110.466 83.2676 110.515 83.2753 110.662 82.9033C111.212 81.5126 111.467 79.9195 111.857 78.4765C112.286 76.8862 112.715 75.296 113.144 73.7058C113.335 72.9962 113.245 72.9047 112.933 72.2197C112.316 70.8639 111.698 69.5083 111.081 68.1527C109.71 65.1438 108.339 62.1349 106.968 59.1259C106.414 57.9092 105.079 57.053 104.118 56.1581L89.1926 42.2625C88.8136 41.9095 88.4345 41.5566 88.0554 41.2036C87.9929 43.325 87.5738 45.6055 88.1886 47.6548C89.1976 51.0178 90.2065 54.3809 91.2154 57.7439C91.7031 59.3696 92.1906 60.995 92.6783 62.6205C92.7689 62.9225 93.3205 64.1201 93.1731 64.3858C93.0914 64.533 92.3946 64.682 92.2437 64.7393C91.5954 64.9859 90.9471 65.2326 90.2987 65.4793C88.4924 66.1665 86.6861 66.8537 84.8798 67.5408C83.2551 68.159 81.6305 68.777 80.0058 69.395C79.4549 69.6047 78.8079 69.9928 78.226 69.9604C77.7055 69.9315 77.1137 69.6739 76.6101 69.5442C75.7246 69.3162 74.839 69.088 73.9536 68.8599C72.2142 68.4119 70.4746 67.9639 68.7353 67.5158C66.7784 67.0117 65.1257 65.5312 63.4521 64.4355C60.5755 62.5519 57.6988 60.6684 54.8223 58.785C54.1638 58.3538 54.1614 58.1077 53.8989 57.3204C53.3092 55.5511 52.7193 53.7818 52.1296 52.0125C51.8147 51.0679 51.4274 50.1192 51.1896 49.152C50.7973 47.5558 50.5647 45.9035 50.2539 44.2896C50.1603 43.8027 50.0665 43.3156 49.9729 42.8287C48.7682 43.3176 47.5635 43.8066 46.3586 44.2956C46.184 44.3664 45.3332 44.5776 45.2575 44.7512C45.2096 44.861 45.4627 45.359 45.4989 45.466C46.4978 48.4245 47.4967 51.3829 48.4957 54.3413C48.81 55.272 49.1241 56.2025 49.4383 57.1331C48.6875 55.9532 47.9366 54.7732 47.1857 53.5933C46.5958 55.5777 46.0057 57.5623 45.4157 59.5467C44.0213 57.9377 42.6268 56.3286 41.2322 54.7196C40.7495 56.3286 40.2668 57.9377 39.7841 59.5467C38.2823 57.5623 36.7806 55.5777 35.2787 53.5933C35.1003 54.6288 34.9217 55.6644 34.7431 56.7C34.6892 57.0126 34.7 57.9093 34.4919 58.1568C34.3206 58.3605 33.8272 58.2595 33.5088 58.2595Z"
          fill="#FF5678"/>
    <path fill-rule="evenodd" clip-rule="evenodd"
          d="M128.593 70.6386C128.508 73.3344 128.567 76.8339 127.091 79.2041C126.853 79.5866 126.047 80.7783 125.957 79.73C125.868 78.7008 126.122 77.6817 125.871 76.6406C125.736 76.0836 125.285 74.8668 124.514 75.37C124.121 75.6264 124.017 76.2596 123.863 76.6593C123.636 77.2506 123.381 77.8326 123.141 78.4194C122.304 80.4679 121.437 82.9125 119.578 84.2681C119.821 82.5017 120.484 80.6156 120.038 78.8301C119.886 78.2215 119.426 77.1103 118.633 77.4669C117.861 77.8143 117.36 79.3644 116.995 80.0547C115.89 82.1476 114.759 84.201 113.514 86.2157C112.888 87.2291 112.212 88.1553 111.393 89.0221C110.881 89.5643 110.242 90.4807 109.435 90.5614C109.435 89.0163 109.943 87.5234 110.408 86.0683C110.907 84.5037 111.362 82.9257 111.852 81.3582C112.277 79.9984 112.626 78.649 112.909 77.2546C113.027 76.678 113.119 76.0808 113.611 75.7083C114.053 75.3737 114.751 75.2144 115.243 74.9683C116.537 74.322 117.868 73.6246 119.069 72.8212C119.563 72.4914 119.988 72.0653 120.504 71.7694C121.093 71.4323 121.643 71.1486 122.187 70.7378C124.538 68.9652 126.656 66.7846 128.084 64.1889C128.315 65.2317 128.622 66.2507 128.656 67.3257C128.691 68.4279 128.627 69.537 128.593 70.6386ZM109.251 83.0296C108.875 82.3949 108.302 82.6549 107.797 82.9609C107.014 83.4358 106.229 83.9072 105.442 84.3761C103.841 85.3303 102.269 86.3343 100.704 87.3474C97.5193 89.409 94.2232 91.0964 90.8653 92.8416C87.6198 94.528 84.5026 96.535 81.4619 98.5637C80.731 99.0512 80.0054 99.5502 79.3037 100.079C78.6808 100.548 78.1826 101.207 77.527 101.625C76.8441 102.06 76.3747 101.707 75.7216 101.386C74.9049 100.985 74.0537 100.649 73.2187 100.287C69.8496 98.8263 66.4707 97.3101 63.1933 95.6521C59.9356 94.0045 56.849 92.1058 53.7276 90.2201C52.241 89.3221 50.7798 88.3672 49.3135 87.4362C47.753 86.4455 46.1374 85.7034 44.5005 84.8611C43.7763 84.4882 43.1348 83.9822 42.3909 83.6433C41.6089 83.2873 40.7828 83.0317 40.0826 82.518C39.7686 82.2876 39.5038 82.0123 39.145 81.8493C38.8504 81.7155 38.516 81.693 38.2251 81.5509C37.6333 81.262 37.4639 80.6755 37.3493 80.0655C36.6122 76.1495 36.2204 72.1252 35.7932 68.1656C35.5531 65.939 35.2852 63.7211 34.9534 61.5063C34.8038 60.5077 35.1047 59.7341 35.2627 58.7627C35.4471 57.6282 35.52 56.4698 35.6435 55.3275C36.2267 56.4079 36.7309 57.5416 37.4729 58.5275C38.0198 59.2539 38.954 60.2842 39.9611 60.2599C41.5264 60.2221 41.4548 57.5374 41.5178 56.4717C42.2308 57.1081 42.4471 58.1448 43.0389 58.884C43.5792 59.5589 44.3145 60.3962 45.1443 60.6984C46.8914 61.3348 46.7233 58.0917 46.6272 57.172C46.5789 56.7107 46.3184 55.9808 46.9365 56.1911C47.5056 56.3849 48.0594 57.1879 48.5378 57.5562C49.3647 58.1931 50.2717 58.7223 51.12 59.3302C52.1724 60.0845 53.3081 60.6297 54.3812 61.3322C55.0523 61.7716 55.7844 61.8702 56.5161 62.1933C57.588 62.6669 58.5349 63.3726 59.5552 63.9403C61.5757 65.0639 63.8171 66.0715 66.0271 66.7489C66.7422 66.968 67.695 67.5859 68.2375 66.951C68.5715 66.5603 68.791 65.9635 69.0745 65.5255C69.4331 64.971 69.814 64.4312 70.2095 63.9023C71.6155 62.0228 73.1758 60.248 74.9086 58.6628C76.9245 56.8187 79.1289 55.1591 81.4868 53.7769C82.4999 53.183 86.73 50.5212 87.6599 52.3946C86.8958 52.347 86.2335 52.6264 85.5801 52.9764C85.4206 53.0619 84.5982 53.6492 84.7907 53.1315C84.5517 53.1763 84.3422 53.4878 84.1614 53.6263C83.8487 53.8657 83.3745 54.1422 83.0125 54.3404C82.6546 54.5362 82.2125 54.5842 81.8863 54.8217C81.7673 54.9084 81.695 55.049 81.5814 55.1428L81.2558 55.1454C81.207 55.3258 81.1582 55.506 81.1095 55.6864C80.9254 55.0963 80.6628 55.8637 80.3553 56.1129C80.1705 56.2627 79.8778 56.417 79.6601 56.5137C79.4974 56.586 79.4723 56.418 79.3143 56.5458C79.174 56.6592 79.0845 56.9091 78.9336 57.0513C78.7484 57.2254 78.5114 57.3607 78.3049 57.5094C77.9094 57.7942 77.4911 58.0179 77.0904 58.2879C76.5514 58.6512 76.2687 59.276 75.7454 59.6559C75.4975 59.8358 75.1124 59.8568 74.9782 59.9721C74.6418 60.2614 74.7526 60.6997 74.1251 60.719C74.1822 60.8104 74.2165 60.9095 74.2282 61.0165C74.0788 60.9907 73.9459 60.9288 73.8295 60.8305C73.8556 61.4564 73.2401 61.6799 72.8712 62.0653C72.6585 62.2873 72.3935 62.5996 72.2435 62.8669C72.2186 62.9116 72.1709 63.2683 72.1606 63.2732C72.1037 63.3005 71.7569 62.9959 71.7897 63.0214C71.693 63.5996 71.1334 64.1464 70.8884 64.6817C70.7593 64.9638 70.6282 65.4172 70.3738 65.6156C70.3046 65.6695 70.0917 65.6132 69.9159 65.8007C69.7868 65.9381 69.638 66.1921 69.5855 66.3744C69.5506 66.4962 69.5926 66.8113 69.5424 66.8843C69.4504 67.0179 69.3072 66.8837 69.163 66.9825C68.8965 67.165 68.8898 67.4501 68.4999 67.4876C68.7686 68.1405 70.3912 68.3418 70.9809 68.5275C72.6487 69.0524 74.3983 69.5766 75.9573 70.3805C76.3606 70.5884 76.7421 70.7597 76.8135 71.2387C76.9131 71.9052 76.5734 72.7915 76.5086 73.4647C76.333 75.2828 76.2972 77.1544 76.3339 78.9802C76.3686 80.7096 76.4246 82.4552 76.5052 84.1825C76.5799 85.784 76.9028 87.3538 77.0771 88.944C77.1249 89.3805 77.093 91.3487 77.8434 91.2496C78.47 91.1669 78.0743 89.8226 78.0626 89.4372C78.0364 88.5842 78.2159 87.7134 78.2084 86.8529C78.2048 86.4392 78.3857 86.0828 78.4031 85.687C78.4203 85.2958 78.2259 84.9867 78.2842 84.5813C78.3402 84.1922 79.4903 81.9543 78.3857 82.2164C78.4504 81.8966 78.507 81.574 78.5925 81.2587C78.7106 81.3649 78.8058 81.489 78.8776 81.6306C78.9759 80.9432 78.9431 80.2571 79.0041 79.5694C79.0314 79.2577 79.1577 78.9165 79.1146 78.6024C79.1228 78.4722 79.1062 78.3444 79.065 78.2193C78.9971 78.1473 78.913 78.1095 78.8131 78.1058C78.7604 77.9338 78.7469 77.8865 78.8403 77.7177C78.8803 77.6033 78.9598 77.5319 79.0787 77.5036C79.3053 77.4767 79.3312 77.3465 79.1563 77.113C79.2475 76.6522 79.2592 76.3613 79.1934 75.9014C79.1381 75.5151 79.3416 74.7671 79.1342 74.423C78.8921 74.0209 78.7717 74.411 78.7267 73.8536C78.717 73.7357 78.7093 73.4898 78.7567 73.3722C78.8087 73.2441 78.965 73.2965 78.9849 73.251C79.1205 72.9413 79.1296 72.3314 78.6496 72.3844C78.6684 72.1631 78.6872 71.9419 78.7059 71.7207C79.0526 72.1199 78.9315 71.782 79.1281 71.5601C79.393 71.2611 79.652 71.2096 80.0306 71.0914C81.0397 70.7766 82.0118 70.3031 82.9979 69.9188C85.0857 69.1052 87.2124 68.3787 89.2392 67.4171C93.502 65.3944 97.6802 63.1992 101.969 61.2298C101.663 60.6612 101.853 60.6335 102.077 60.0997C102.376 60.3072 102.313 60.1624 102.526 60.1497C102.507 59.9716 102.562 59.9178 102.692 59.9885C102.796 60.0202 102.902 60.0314 103.01 60.0221C103.276 60.0676 103.493 60.2137 103.734 60.2692C103.813 60.3277 103.9 60.3714 103.995 60.4009C104.081 60.3814 104.153 60.3392 104.213 60.2742C104.604 60.3466 104.736 60.6409 104.753 61.067C104.756 61.1412 104.529 61.2171 104.594 61.3167C104.707 61.4908 105.013 61.4493 105.188 61.4715C105.149 61.6524 105.111 61.8331 105.073 62.0138C105.84 61.6599 105.64 62.7674 105.872 63.1313C105.937 63.2328 106.081 63.1517 106.156 63.2693C106.254 63.4228 106.225 63.6402 106.308 63.7931C106.497 64.1388 106.686 64.0968 106.874 64.4928C107.857 66.5603 109.165 68.4865 110.108 70.5983C110.557 71.6035 110.963 72.6259 111.432 73.6222C111.863 74.5392 112.11 75.3188 111.802 76.3201C111.089 78.6431 110.326 81.0084 109.391 83.2522C109.344 83.178 109.297 83.1038 109.251 83.0296ZM59.4839 100.369C59.417 100.483 59.3501 100.597 59.2831 100.711C59.1345 99.8557 59.5306 100.252 59.4839 100.369ZM56.337 98.7677C56.1225 98.7035 56.2152 98.3532 56.2221 98.2034C56.3577 98.3725 56.4908 98.5448 56.6038 98.7305C56.5148 98.7429 56.4258 98.7553 56.337 98.7677ZM47.712 95.4801C47.9373 95.3538 48.0993 95.263 48.3547 95.1198C48.0951 95.6257 48.0951 95.6257 47.712 95.4801ZM34.1431 50.9197C33.7989 51.7645 34.8484 56.9804 33.8713 57.1506C33.7312 56.6928 33.7137 55.4323 33.1336 55.2819C32.4139 55.095 32.4848 56.3927 32.3865 56.794C30.9089 55.766 30.2526 53.7808 29.5467 52.2075C28.6469 50.2021 27.939 48.1163 27.2628 46.0268C26.6847 44.2403 26.2067 42.4222 25.6224 40.6386C25.2554 39.5184 24.8597 38.3954 24.6129 37.2408C24.5593 36.9899 24.3484 36.3539 24.5276 36.1154C24.7881 35.7687 25.7259 36.1658 26.0281 36.2568C27.9884 36.8467 30.0219 37.1006 32.0359 37.4433C34.2736 37.8239 36.5063 38.2173 38.7575 38.5124C39.32 38.5861 39.8829 38.6559 40.4461 38.7238C40.8113 38.7679 41.3642 38.7238 41.7111 38.8876C42.4133 39.2189 42.5628 40.4869 42.8236 41.1446C43.7966 43.5987 44.9417 45.9753 45.9662 48.4072C46.8892 50.5979 47.5888 52.9286 48.9154 54.9234C47.926 54.4847 46.6721 52.1658 45.5665 53.5024C45.0912 54.0772 45.2111 54.8344 45.2491 55.5222C45.3041 56.5166 45.3213 57.5184 45.3213 58.5144C44.2394 58.2333 43.5124 57.0051 42.9444 56.1351C42.1685 54.9469 41.6799 53.8271 41.3363 52.4649C41.1875 51.875 40.793 51.8604 40.4424 51.5074C40.2171 51.2805 40.1038 50.9748 39.7807 51.3048C39.3746 51.7196 39.6447 52.8683 39.7149 53.3581C39.8814 54.5235 40.4277 56.3171 39.8967 57.4122C39.1801 58.8901 37.2597 55.1715 37.0347 54.6344C36.9203 54.361 34.8772 49.1179 34.1431 50.9197ZM32.8015 25.5918C32.9225 25.6103 33.0433 25.6288 33.1643 25.6473C33.0668 25.7334 32.8639 26.0352 32.6982 25.9554C32.7326 25.8343 32.7671 25.7131 32.8015 25.5918ZM39.2103 24.2165C39.1725 24.2582 39.1344 24.2997 39.0964 24.3414C38.9229 24.1245 38.9844 23.8083 38.9844 23.5575C39.2137 23.696 39.2697 23.9731 39.2103 24.2165ZM39.7283 26.623V27.332C39.2478 27.1237 39.2383 27.0163 39.7283 26.623ZM40.3117 27.5244C39.9751 27.432 39.9349 27.3575 39.9822 26.8402C40.1217 27.13 40.2135 27.321 40.3117 27.5244ZM42.2493 32.7747C42.1082 33.1377 41.2836 32.2727 41.3138 32.0138C41.3426 31.7668 41.4692 31.6931 41.644 31.8519C41.7018 31.9045 41.616 32.0946 41.6528 32.1605C41.7859 32.3993 42.0541 32.5947 42.2493 32.7747ZM42.2585 34.9617C42.0519 35.4776 41.6836 34.6652 42.2234 34.643C42.2588 34.7468 42.2706 34.853 42.2585 34.9617ZM41.8577 34.1483C41.7777 34.0417 41.7 33.9335 41.6245 33.8235C41.9026 33.8796 42.1233 34.2848 42.4167 34.0145C42.3819 34.4267 42.0891 34.4381 41.8577 34.1483ZM23.8774 27.4476C23.4303 26.9596 26.346 26.6171 26.6977 26.5332C29.2503 25.9245 31.6604 25.0437 34.047 23.9629C35.1856 23.4474 36.3184 22.9256 37.4302 22.3541C37.9104 22.1074 38.5685 21.8982 38.9694 21.5278C39.2557 21.2635 39.2443 21.0634 39.6163 20.9059C39.9321 20.7725 39.9479 20.8985 40.0925 20.6572C40.1794 20.5123 40.2777 19.9817 40.2269 19.8246C40.0884 19.3962 39.8835 19.7435 39.596 19.4483C39.3889 19.2354 39.4391 18.6301 39.4956 18.3794C39.569 18.4988 39.6111 18.6285 39.6224 18.7681C39.9344 18.6143 39.8086 18.0861 40.1498 17.9995C40.5094 17.9084 40.4723 18.1886 40.5661 18.475C40.8379 18.0759 40.62 17.7356 40.4729 17.3459C41.2206 17.2059 42.024 17.0703 42.7652 17.319C43.3011 17.4988 43.7599 17.9408 44.3258 18.0262C44.8799 18.1097 44.9865 17.847 45.395 17.5803C45.7266 17.3639 46.0114 17.6188 46.1821 17.4553C46.0769 18.0072 45.1721 17.9318 45.2835 18.6214C45.3337 18.9318 45.7141 19.2106 45.8872 19.4521C46.1046 19.7553 46.2779 20.0905 46.4259 20.4321C47.0018 21.7608 47.248 23.3028 47.4896 24.7237C48.086 28.2311 48.1614 31.8077 48.7223 35.3263C48.9896 37.0023 49.2575 38.6793 49.3964 40.3716C49.4311 40.7948 49.6895 41.7546 49.4781 42.1617C49.2993 42.5054 48.9016 42.5064 48.5524 42.5896C47.8692 42.7519 47.2277 42.9725 46.5723 43.2169C45.9849 43.4359 45.8141 43.5703 45.437 43.0176C45.0722 42.4827 44.8918 41.8452 44.6309 41.2589C44.2984 40.5118 43.8968 39.7909 43.5113 39.0703C44.2687 39.0703 44.7046 38.6614 44.6844 37.8918C44.6626 37.0393 43.9615 36.8371 43.6725 36.1365C43.3914 36.5016 43.3678 36.5119 43.1674 36.1653C42.9383 35.769 42.7837 35.0438 42.6435 34.5942C42.7438 34.7012 42.844 34.8082 42.9443 34.9151C43.197 34.5672 42.8011 34.0188 42.6686 33.6912C42.4643 33.1853 42.4282 32.6384 42.2343 32.134C42.1286 31.8587 41.8837 31.6419 41.8237 31.3547C41.7837 31.1624 41.9442 30.9795 41.9061 30.7843C41.8398 30.4445 41.4554 30.0799 41.3359 29.7343C41.1519 29.2026 40.9523 28.7346 40.7241 28.2166C40.4153 27.5156 40.4871 26.7799 40.4306 26.0338C40.372 25.2602 40.1242 24.52 40.0367 23.7497C39.9762 23.2176 40.1656 22.5476 39.763 22.1214C39.7159 22.8299 39.9189 22.8189 39.2533 22.9463C38.4954 23.0913 37.9458 23.6559 37.2293 23.8244C37.0815 23.8592 36.9739 23.2139 37.0315 24.0941C36.6878 23.8403 35.9542 24.1554 36.2279 24.306C36.0205 24.5279 35.612 24.3744 35.5438 24.7068C34.8389 24.0215 33.7085 26.3541 32.8691 25.1374C32.7305 25.962 32.1334 26.4496 31.3318 26.5587C30.9287 26.6134 30.6803 26.7477 30.3226 26.8686C30.25 26.8928 30.2233 26.9973 30.1374 27.0254C30.0061 27.0682 29.8133 26.939 29.7187 26.9641C29.5261 27.0153 29.312 27.2687 29.0431 27.3191C28.7348 27.3769 28.3985 27.3503 28.0899 27.3146C27.704 27.2698 27.5343 27.2242 27.1565 27.3513C26.8166 27.4657 26.4527 27.786 26.1373 27.4372C25.6419 28.2943 24.4607 28.0848 23.8774 27.4476ZM46.7812 17.1042C46.4063 17.0593 46.6666 16.7369 46.8402 16.64C47.312 16.3771 47.186 17.1528 46.7812 17.1042ZM26.0213 20.1801C28.2218 17.0054 31.9857 14.8242 35.2974 12.9889C37.1063 11.9865 38.9527 11.0148 40.852 10.1944C41.7964 9.78662 42.7517 9.39466 43.716 9.03649C44.2308 8.84517 44.752 8.67123 45.2735 8.4981C45.4177 8.45031 45.68 8.30357 45.8309 8.31789C45.8048 8.31531 46.206 8.42441 46.1271 8.45868C46.3855 8.34621 46.5085 8.05288 46.8122 7.93558C47.1537 7.80364 47.5886 7.74909 47.9543 7.73718C48.2779 7.72656 48.558 7.86028 48.8663 7.87074C49.0689 7.87749 49.2411 7.78127 49.4395 7.76711C49.541 7.76003 49.532 7.91193 49.5931 7.92078C49.6197 7.92464 49.89 7.82311 49.8926 7.82488C49.9911 7.88811 50.0783 8.13494 50.1673 8.23132C50.4224 8.50776 50.797 8.70036 51.1373 8.84582C51.5515 9.02281 52.5618 9.20077 52.0936 9.85565C52.4262 9.80786 52.581 10.1084 52.1646 10.1845C51.939 10.2259 51.8426 10.0193 51.6751 9.87834C51.2881 9.55331 50.3488 9.09055 49.7914 9.11147C49.4778 9.12321 49.2355 9.36119 48.9463 9.4476C48.6617 9.53255 48.5207 9.40077 48.271 9.42169C47.9791 9.44599 47.7912 9.69298 47.513 9.7369C47.2525 9.7781 47.1073 9.60046 46.8745 9.61285C46.5978 9.62749 46.3297 9.86788 46.0655 9.94865C45.6452 10.0771 45.3366 10.1646 44.9263 10.3775C44.1311 10.7902 43.2431 10.9469 42.4236 11.3022C41.7684 11.5862 41.0255 11.7357 40.4192 12.0497C39.745 12.3987 39.0677 12.7465 38.4076 13.1257C37.9306 13.3997 36.961 13.494 36.4352 13.4243C36.4276 14.3927 35.951 13.7138 35.4707 14.138C35.5843 14.2382 35.7134 14.3119 35.8574 14.359C35.3369 14.5669 34.8558 14.8257 34.3515 15.0646C33.8303 15.3118 33.2742 15.3661 32.9318 15.8336C32.6164 16.2643 32.7233 16.0421 32.2526 16.2117C32.0367 16.2896 31.8489 16.5271 31.6933 16.6865C31.4259 16.9607 31.3667 17.3758 31.214 16.8124C31.1694 16.8811 30.994 17.3186 30.9599 17.3297C30.7686 17.1266 30.7411 17.3673 30.6341 17.4534C30.6904 17.6405 30.61 17.7631 30.3927 17.8212C30.2828 17.903 30.1715 17.9831 30.059 18.0615C29.651 18.3445 29.1316 18.5873 28.8442 19.009C28.6323 18.884 28.5538 18.6682 28.6828 18.4479C28.2778 18.8212 27.7946 19.2047 27.685 19.7793C27.6347 19.7307 27.576 19.6956 27.5093 19.674C27.3449 19.7851 27.5591 20.1159 27.6633 20.1904C28.118 20.0137 27.5497 20.0777 27.8553 20.1062C27.9423 20.1143 28.0318 20.1794 28.1279 20.1806C28.4096 20.1843 28.6743 20.1707 28.9536 20.1278C29.5696 20.0329 30.1749 19.856 30.7712 19.6787C31.4206 19.4856 32.0702 19.2929 32.7053 19.056C33.2282 18.861 33.7425 18.6436 34.2565 18.427C34.4619 18.3405 34.667 18.2528 34.8726 18.1668C35.2632 18.0037 35.4691 17.7356 35.4146 18.1948C35.7256 18.1432 35.9951 17.7036 36.2339 17.5242C36.5699 17.2721 36.9477 17.084 37.3457 16.9552C37.507 16.9031 37.6254 16.8368 37.7921 16.8363C37.8738 16.8362 37.9228 17.0666 37.9742 17.054C38.3314 16.9675 38.1686 16.7696 38.3292 16.4844C38.6804 15.8612 39.6266 15.5166 40.2076 15.1626C40.5764 14.9378 40.8382 14.6355 41.1787 14.3866C41.3379 14.2702 41.4536 14.2187 41.6205 14.1695C41.7483 14.1317 41.905 14.4252 41.9878 14.1302C41.6907 14.0088 41.4456 13.859 41.1597 13.7703C40.9574 13.7074 41.2001 13.4923 40.8795 13.6203C40.7508 13.6718 40.7066 13.9209 40.6592 14.0252C40.3012 13.7054 39.2946 14.0368 38.8698 14.1706C38.8406 14.1798 38.7094 14.1106 38.6476 14.1148C38.4024 14.1312 38.2317 14.4612 38.0703 14.6035C37.6412 14.9814 37.1757 15.1394 36.6473 15.3552C36.7879 14.5869 37.8214 14.2722 38.4246 13.9779C39.3064 13.5476 40.1273 12.9984 41.0927 12.7671C41.7357 12.6127 42.5877 12.4887 42.8654 13.2363C43.0316 13.6844 43.0525 14.7977 42.4902 15.0044C42.4308 14.7953 42.621 14.6165 42.6783 14.435C42.1185 14.6487 42.0263 15.3211 41.6012 15.672C41.3622 15.8691 41.2768 15.9324 41.1613 16.1229C41.0466 16.3121 40.9915 16.4886 40.7226 16.6899C40.2832 15.7565 40.3576 17.035 40.1347 17.1955C40.2243 17.1309 39.7715 17.3194 39.8256 17.2994C39.8047 17.3071 39.6074 16.9876 39.4795 16.9943C39.2467 17.0066 39.2914 17.2629 39.1793 17.3919C38.799 17.8286 38.3078 18.115 37.6959 18.0463C37.6816 18.357 37.7775 18.7282 37.3531 18.7566L37.2975 18.0677C37.0666 18.3014 36.7626 18.5232 36.5747 18.7937C36.3609 19.1015 36.3837 19.2911 36.0289 19.4962C35.6582 19.7107 34.8694 20.1333 34.4282 20.1698C34.5373 20.015 34.518 19.8752 34.3706 19.7506C34.1487 19.9794 33.8211 20.002 33.5849 20.2086C34.4049 20.5511 32.955 20.5334 32.7711 20.5722C32.648 20.5983 32.5405 20.7104 32.4158 20.7357C32.2502 20.7693 32.2288 20.5952 32.0863 20.6504C31.8777 20.7312 31.9624 20.9592 31.7442 21.0737C31.5875 21.1561 31.3216 21.155 31.1448 21.2332C30.7234 21.4198 29.8257 21.8332 29.5409 21.3318C29.3966 22.192 27.9225 21.6684 27.3769 21.6105C26.6297 21.5312 25.3281 21.1804 26.0213 20.1801ZM29.1599 11.3789C29.2656 11.2887 29.3715 11.2953 29.4774 11.3989C29.33 10.6204 30.47 10.2425 30.9673 9.91149C31.627 9.47254 32.4036 8.62087 33.2668 8.68829C33.1196 8.79738 32.9727 8.90648 32.8256 9.01557C33.0356 9.04276 33.2454 9.06996 33.4551 9.09715C33.3368 9.27093 33.2184 9.44454 33.0998 9.61816C32.9061 8.5504 31.8953 9.89845 31.6028 10.0949C31.3081 10.2927 31.0143 10.4401 30.7525 10.6813C30.4931 10.9202 30.259 11.3505 29.8302 11.1355C29.7911 11.7453 29.3008 11.5799 28.9618 11.9176C28.9477 11.7057 29.069 11.5559 29.1599 11.3789ZM33.6385 8.33478C34.682 7.94395 35.5904 7.22132 36.5737 6.70514C37.5129 6.21204 38.4711 5.76923 39.4259 5.3092C39.9102 5.07573 40.7975 4.47202 41.3511 4.77967C42.0982 5.19512 41.0697 5.32915 40.8026 5.473C40.7038 4.83325 40.3577 5.41282 40.5645 5.76875C39.9944 5.52256 38.7511 6.48573 38.2072 6.75132C38.0841 6.8115 38.1393 6.84626 37.9993 6.91705C37.9649 6.93443 37.608 7.01569 37.5058 7.04996C36.9938 7.22133 36.6564 7.0852 36.4358 7.70323C36.3897 7.55778 36.3435 7.41216 36.2973 7.26654C35.9768 7.98627 35.0025 8.30132 34.3795 8.72691C34.2189 8.83664 33.7603 9.26224 33.5566 9.17422C33.2731 9.05161 33.3869 8.42891 33.6385 8.33478ZM52.4622 10.5047C52.9028 10.5339 52.478 10.7393 52.599 10.8751C52.5853 10.8599 52.8643 11.0978 52.8278 11.0325C52.877 11.1204 52.9953 11.1171 53.0558 11.2957C53.2642 11.9099 52.3543 12.5445 52.0474 12.893C51.4508 13.5709 51.106 14.4294 50.4842 15.0855C50.2035 15.3819 49.9241 15.5866 49.5349 15.6971C49.2625 15.7745 48.9743 15.6917 48.7239 15.9536C48.5223 16.1646 48.568 16.2844 48.3452 16.3966C47.9526 16.5943 47.7796 16.4209 47.3976 16.8482C47.0689 15.9546 48.0134 15.956 48.5062 15.4566C49.1865 14.7671 49.932 14.0715 50.57 13.3339C51.1367 12.6786 51.3637 12.104 51.6328 11.3078C51.7176 11.0568 51.8099 10.5186 52.0437 10.3611C52.4078 10.1158 52.1893 10.4866 52.4622 10.5047ZM54.6287 33.72C55.7841 32.4276 57.2174 31.2672 58.7711 30.4887C59.3264 30.2104 60.1169 29.8451 60.6925 30.2736C61.2569 30.6936 61.1355 31.5314 60.9079 32.1013C60.6899 32.0157 60.8957 31.2147 60.7826 31.0168C60.5358 30.585 60.0032 30.8143 59.6408 30.9591C59.2164 31.1287 58.8376 31.316 58.5015 31.6238C58.365 31.7485 58.1039 31.8603 58.0165 31.9461C57.8852 31.8915 57.8078 31.9312 57.7846 32.0651C57.8117 32.1472 57.8084 32.228 57.7748 32.3074C57.7557 32.3327 57.5849 32.2291 57.5606 32.2498C57.4499 32.3446 57.3463 32.4561 57.2374 32.5441C57.0187 32.721 56.8327 32.8046 56.6314 33.0511C56.2427 33.5276 55.7284 33.8067 55.3379 34.2607C55.2497 34.3633 55.144 34.6264 55.1242 34.6494C54.9268 34.8798 54.6341 35.0621 54.4114 35.3061C54.0264 35.7275 53.6153 36.0103 53.171 36.3717C52.9797 36.5272 52.7565 36.6947 52.6293 36.9109C52.5713 37.0096 52.5387 37.5502 52.5366 37.5524C52.1008 38.03 52.1856 37.0701 52.2185 36.9497C52.5723 35.6546 53.7686 34.6822 54.6287 33.72ZM52.2503 42.4776C52.3045 42.6809 52.3491 42.8491 52.4041 43.0555C52.0587 42.7722 52.0587 42.7722 52.2503 42.4776ZM51.8772 43.1437C51.7502 43.2716 51.6226 43.3987 51.4941 43.5251C51.2114 43.2263 51.929 43.0925 51.8772 43.1437ZM51.6978 38.0009C51.5626 38.5476 51.0678 39.2104 50.7277 39.6419C50.7652 39.5943 50.4374 39.6901 50.4001 39.7118C50.2789 39.7819 50.569 40.2367 50.1492 40.0334C50.0002 40.1177 50.2936 40.4611 50.0911 40.6148C49.5061 39.2817 51.1036 38.1267 51.7221 37.1371C52.0246 37.4149 51.7737 37.6944 51.6978 38.0009ZM47.8977 45.2084C48.3243 45.3182 48.5461 45.2491 48.8342 44.8301C49.0073 44.5785 49.0705 44.1328 49.4665 44.5093L49.5363 44.0251C50.1016 44.257 50.0541 45.095 50.3011 45.5594C50.4213 45.034 50.706 43.5664 51.5776 43.8018C52.556 44.0662 50.9275 45.7489 50.7763 46.1612C50.4437 45.645 50.5745 46.1251 50.3208 46.1978C50.1031 46.2604 49.7629 46.1002 49.4984 46.1146C48.6935 46.1584 47.9865 46.5205 47.2513 46.827C47.0652 46.3251 46.8792 45.8232 46.693 45.3214C47.1258 45.3547 48.0208 44.2026 48.1479 45.04C47.8269 44.9841 47.7365 44.9983 47.5801 45.2905C47.68 45.2398 47.7859 45.2125 47.8977 45.2084ZM49.7043 51.759C49.703 51.755 50.5369 51.8065 50.6112 51.7793C51.1818 51.5709 50.9708 50.9238 51.0875 50.4663C51.3227 50.6826 51.198 51.0773 51.2706 51.3571C51.3557 51.686 51.6022 51.9663 51.625 52.318C51.677 53.1127 51.0249 52.9363 50.5306 53.1935C50.1082 53.4133 50.0614 53.6897 49.7047 53.0974C49.6081 52.9372 49.4005 52.5196 49.4218 52.3146C49.4427 52.1116 49.7644 51.9428 49.7043 51.759ZM50.3763 55.1979L50.1457 54.9396C50.8328 55.1499 50.4276 54.8337 50.5856 54.4014C51.1129 54.7525 51.543 55.1134 51.9602 54.4104L52.6811 57.3179C52.1969 57.4319 51.5723 56.6838 51.2402 56.4268C51.0484 56.2783 49.984 55.7063 50.6231 55.5396C50.5407 55.4257 50.4585 55.3118 50.3763 55.1979ZM55.0818 46.0678C54.6816 46.4484 54.2785 46.6614 53.8428 46.9605C53.4606 47.2231 53.5923 47.5245 53.261 47.8173C53.041 48.012 52.5253 48.2103 52.2535 48.3588C51.7694 48.6233 51.3357 48.6737 50.8377 48.3776C50.9732 49.4687 50.226 49.5541 49.2958 49.7702C48.8522 49.8734 48.5896 50.0309 48.2699 49.6246C48.0509 49.3466 47.9651 48.8431 48.2375 48.5887C48.6702 48.1845 49.8229 48.324 50.378 48.0698C50.7993 47.877 51.2284 46.7908 51.7481 47.1861C51.4799 46.7589 51.7922 46.6439 52.0254 46.3393C52.2807 46.0054 52.4376 45.615 52.7018 45.2839C53.2038 44.6544 53.9746 44.0213 54.6875 43.6417C55.3149 43.3078 55.6443 43.5442 55.7382 44.2454C55.7856 44.598 55.7838 45.1232 55.5864 45.436C55.5234 45.5357 55.3157 45.5368 55.2528 45.6305C55.1432 45.7941 55.2438 45.9137 55.0818 46.0678ZM62.4436 37.6054C62.9442 37.9928 62.8954 38.807 62.9743 39.3615C63.0855 40.143 63.0049 40.8993 62.9929 41.6952C62.9804 42.5292 62.5712 43.0724 62.3786 43.8541C62.1646 44.7236 61.8883 45.1841 61.4082 45.9138C61.9289 45.9957 61.154 47.5507 61.0262 47.752C60.8875 47.9705 59.7691 48.9775 60.2486 48.9775C59.984 49.3263 59.696 49.6843 59.4324 50.0235C59.3287 50.1571 59.1467 50.2095 59.0649 50.3038C58.8984 50.4954 58.8883 50.6663 58.769 50.89C58.588 51.2293 58.5285 51.1387 58.2905 51.3849C58.1262 51.555 58.0184 51.7794 57.857 51.9424C57.337 52.4675 57.2707 52.0374 56.9799 51.633C56.9354 51.7413 56.8562 51.8092 56.7425 51.8367C56.6514 51.3791 57.2783 50.9168 57.5418 50.6388C57.9735 50.1831 58.3681 49.6811 58.7497 49.1828C59.5671 48.115 60.3017 46.9806 60.8812 45.7655C61.4978 44.4723 61.9903 43.0728 62.2462 41.6619C62.4412 40.5866 62.6266 38.742 61.1897 38.4685C60.1446 38.2696 58.9925 38.9045 58.1311 39.4186C57.606 39.7317 57.0781 40.0431 56.578 40.3953C56.0351 40.7773 55.5659 41.3179 54.9767 41.6245C55.299 41.4568 54.2356 41.9614 54.3984 41.8195C54.3221 41.8858 54.3879 42.0883 54.3376 42.1797C54.2719 42.2986 54.0438 42.4161 53.9414 42.493C53.6711 42.6961 53.2392 42.9038 53.1163 43.2391C51.4017 42.0159 54.8114 39.8444 55.6855 39.2913C57.4192 38.1945 60.436 36.0512 62.4436 37.6054ZM67.0687 25.7092C67.0522 24.8284 67.7696 23.626 68.254 22.9077C68.491 22.5562 68.8697 22.5702 69.0085 22.1555C69.0886 21.9167 68.9836 21.6664 69.0074 21.4266C69.0396 21.1024 69.1802 20.8424 69.3424 20.5637C70.8087 18.0444 72.5902 15.8146 74.4878 13.6166C75.4235 12.5331 76.3105 11.4079 77.3195 10.39C77.7411 9.96491 78.874 8.43664 79.5222 8.5895C79.8654 8.67043 80.0651 9.19417 80.22 9.46144C80.4762 9.90344 80.7579 10.3174 81.0693 10.7239C81.891 11.797 82.8389 12.7389 83.9583 13.4995C84.6573 13.9748 85.3635 14.4368 86.047 14.9348C86.6097 15.3446 87.4604 15.8131 87.8622 16.3885C88.2641 16.9641 87.6739 17.4515 87.3513 17.9293C86.8499 18.6726 86.3888 19.4427 85.8853 20.1851C85.6853 20.0412 85.7369 19.749 85.5998 19.5648C85.4782 19.4015 85.3062 19.335 85.1382 19.2341C84.8162 19.0412 84.5002 18.8053 84.2095 19.1286C83.7005 19.6943 84.4003 21.0316 85.1546 20.8848C85.2434 21.4432 83.7372 22.3627 83.3597 22.6701C82.2012 23.6127 81.0062 24.4321 79.4758 24.5174C78.8565 24.5519 78.2121 24.5049 77.6237 24.2976C77.3418 24.1983 77.0301 24.0621 76.814 23.8456C76.5552 23.5866 76.4893 23.2011 76.2383 22.9446C76.0206 22.722 75.7216 22.6878 75.5041 22.4644C75.2862 22.2409 75.1786 21.8879 75.0902 21.5985C74.9174 21.0329 74.8847 20.4364 74.7187 19.8695C74.6188 19.5286 74.5367 19.0727 74.2109 19.4003C73.7377 19.8763 73.9753 21.3729 74.0965 21.9431C74.2698 22.7566 74.676 23.4125 75.1016 24.1124C75.5631 24.8717 75.7335 25.576 75.8162 26.4545C75.971 28.0992 76.4429 29.6773 77.1773 31.157C77.4864 31.78 77.8566 32.3659 78.1904 32.9746C78.3463 33.2586 78.6956 34.2275 79.1196 34.2224C79.797 34.214 78.832 32.2386 78.6982 31.907C77.9561 30.0702 77.2473 28.1397 77.0883 26.1509C78.1521 26.4249 79.3115 26.685 80.4131 26.5113C79.7021 28.1014 80.4448 29.6845 80.3539 31.3213C80.3085 32.142 80.2757 32.8992 80.2926 33.7176C80.3075 34.4352 79.9835 35.1526 79.7033 35.8015C79.1469 37.0902 78.4465 38.6799 77.4132 39.667C76.5493 40.4923 75.3937 40.5568 74.2649 40.3668C71.6972 39.9343 70.0101 37.9605 68.9326 35.7188C68.2402 34.2787 67.711 32.7414 67.3824 31.1774C67.002 29.3674 67.1024 27.5452 67.0687 25.7092ZM70.4032 13.5109C68.007 11.7772 71.489 9.80835 73.2614 10.0764C73.6772 10.1392 74.4421 10.311 74.4032 10.8536C74.3713 11.297 73.6316 11.7913 73.3476 12.065C72.5378 12.8461 71.7136 14.4588 70.4032 13.5109ZM87.8346 52.0342C87.7524 51.9605 87.0818 52.1413 87.3474 51.7445C87.5682 51.4148 88.1803 51.828 88.4026 51.9128C88.2194 52.0395 88.0599 52.2356 87.8346 52.0342ZM77.8571 73.0031C77.6512 73.0285 77.4359 72.473 78.1783 72.888C78.0713 72.9263 77.9641 72.9648 77.8571 73.0031ZM77.8359 82.0557C77.8615 82.3046 77.9376 82.4687 77.7607 82.6498C77.6113 82.4655 77.592 82.2057 77.8359 82.0557ZM78.1373 85.7961C78.1154 85.9316 78.0935 86.067 78.0719 86.2024C77.9004 86.1156 77.7292 86.0289 77.5577 85.942C77.7508 85.8934 77.9442 85.8448 78.1373 85.7961ZM78.3471 82.642C78.6026 82.7376 78.4837 82.4321 78.6692 82.3891C78.7357 82.7072 78.6538 82.9796 78.4711 83.242C78.4538 83.1799 78.3601 82.6467 78.3471 82.642ZM84.8772 60.0712C84.5187 60.0255 84.4645 60.4042 84.1972 60.5511C84.0248 60.6461 83.4996 60.5748 83.4016 60.7565C83.5309 60.7938 83.6605 60.8313 83.7898 60.8686C83.4936 61.0282 83.1974 61.188 82.9011 61.3476C83.6136 61.3476 84.356 61.0073 85.0637 61.1072C85.3628 61.1496 85.5821 61.2506 85.7698 61.4939C85.8837 61.6416 85.9838 61.8793 86.0021 62.0601C86.0219 62.2558 85.8694 62.3909 85.8964 62.4843C86.2153 62.4929 86.1776 63.016 86.106 63.2292C85.9508 63.6915 85.334 64.4154 84.7813 64.1223C85.0125 64.4503 84.9537 64.6376 84.6117 64.828C84.6428 64.7195 84.6656 64.5298 84.4909 64.5487C84.446 64.7305 84.4632 65.0188 84.3147 65.1559C84.1485 65.3093 84.0001 65.13 83.8412 65.2298C83.6527 65.3482 83.7094 65.534 83.5612 65.6624C83.3652 65.832 83.3372 65.7115 83.1029 65.7445C82.7481 65.7947 82.9745 65.5743 82.6904 65.8616C82.5921 65.9608 82.6086 66.2187 82.4493 66.3638C82.1433 66.6423 81.3267 66.9326 81.0335 66.5754C80.3286 67.6926 78.2158 67.9606 77.2323 67.0787C75.6638 65.6723 78.5884 62.8119 79.554 61.9053C80.5232 60.9956 81.5996 60.2097 82.6888 59.4512C83.3076 59.0203 83.9427 58.6291 84.5911 58.2452C84.9911 58.0082 85.4935 57.5755 85.985 57.6171C86.4259 57.6544 86.8026 57.9965 87.2668 58.0642C87.6025 58.1131 88.2546 58.1939 87.8311 58.6493C87.633 58.862 86.8552 59.206 86.5904 59.2578C86.4348 59.2882 86.2708 59.23 86.1167 59.2615C85.8557 59.3151 85.6764 59.5354 85.3924 59.5074C85.4824 59.9288 85.3183 60.1272 84.8772 60.0712ZM89.5191 44.4264C89.5193 44.7561 88.9175 44.6739 88.7919 44.5619C88.5849 44.3777 88.5777 43.8268 88.5009 43.5762C88.8507 43.6642 89.5188 43.9864 89.5191 44.4264ZM84.6714 33.5496C85.9355 32.5107 87.2646 31.5581 88.6696 30.7192C89.1727 30.4187 89.8831 29.8128 90.5081 29.8884C90.7702 29.9203 91.3121 30.2213 91.1147 30.5533C91.0778 30.6154 90.7861 30.6403 90.696 30.6854C90.5938 30.7364 90.5137 30.877 90.4189 30.9465C89.7624 31.4281 88.9737 31.724 88.3151 32.2172C87.7738 32.6222 87.2691 33.0753 86.6864 33.4228C86.1274 33.7561 85.5434 33.967 85.0127 34.3361C85.0232 34.3287 84.3224 34.5807 84.4598 34.6266C83.8447 34.4208 84.4944 33.6952 84.6714 33.5496ZM93.0993 33.1627C93.8502 32.8634 94.5849 32.5002 95.3711 32.2991C95.7634 32.1987 96.1661 32.1232 96.5722 32.1684C96.6413 32.0476 96.7331 32.0209 96.848 32.0883C96.9376 32.226 97.0558 32.3317 97.2025 32.4056C97.4265 32.5778 98.2511 32.8029 98.0863 33.1831C97.9774 33.4346 97.1505 33.4555 96.9236 33.512C96.2396 33.6824 95.6018 34.0656 94.8972 34.1598C94.8311 34.1686 94.6152 34.0885 94.6127 34.089C94.3378 34.149 94.1089 34.4343 93.8727 34.571C93.3643 34.8653 92.6338 34.9147 92.2687 35.4227C93.451 36.2242 94.4768 35.4293 95.5162 34.8241C96.1389 34.4618 96.8073 34.2003 97.4878 33.968C97.8434 33.8467 98.2022 33.7205 98.5626 33.614C98.7118 33.5596 98.8651 33.5205 99.0225 33.4965C99.1689 33.4674 99.2737 33.5207 99.3369 33.6565C99.7726 33.642 99.8099 33.3686 100.072 33.8785C100.442 34.5974 99.8762 34.5609 99.3446 34.6492C98.6074 34.7715 97.8575 35.047 97.1311 35.2296C96.9635 35.2718 95.4943 35.6124 95.4926 35.6245C95.426 36.0882 99.6426 35.6588 100.005 35.5893C100.643 35.4663 101.329 35.1173 101.99 35.2015C102.498 35.266 103.654 36.011 102.844 36.5059C102.685 35.7426 102.138 36.373 101.852 36.6306C101.471 36.9735 100.926 36.9405 100.404 37.0749C99.6894 37.2583 97.8614 37.9467 97.3542 37.0691C97.5147 37.8382 94.6007 37.4474 94.2 37.4219C93.8095 37.397 93.3054 37.48 92.9279 37.3687C92.6817 37.2961 92.5448 37.136 92.3131 37.1C92.2563 37.1611 92.1882 37.2028 92.1091 37.2248C91.9916 37.1655 91.8856 37.0898 91.791 36.9983C91.0106 36.6396 89.8031 36.4414 90.2368 35.2988C90.6458 34.2212 92.1073 33.5582 93.0993 33.1627ZM100.414 33.8286C100.433 33.7615 100.453 33.6944 100.472 33.6272C100.474 33.833 100.965 33.9208 100.909 34.1875C100.783 34.7778 100.217 33.8907 100.168 33.794C100.25 33.8056 100.332 33.817 100.414 33.8286ZM103.41 34.8095C103.467 35.0513 104.12 35.5662 103.958 35.685C103.701 35.3352 102.989 35.494 103.41 34.8095ZM92.4016 56.8759C92.6405 56.4021 93.3628 57.209 93.2866 56.4C93.6793 56.4355 93.4341 56.7343 93.9048 56.603C94.0811 56.5538 94.2003 56.3583 94.4153 56.3133C94.4726 56.3012 94.7202 56.3208 94.8057 56.3182C95.0887 56.3096 96.198 56.278 95.4345 55.9068C95.8618 55.6243 95.9145 55.7676 96.3001 56.0265C96.2012 55.4913 96.7687 55.7951 97.0329 55.8619C96.8445 55.5567 97.3121 55.232 97.4638 55.0257C97.4094 55.3435 97.4381 55.6992 97.8979 55.496C98.0125 55.4455 97.9867 55.2209 98.0777 55.1842C98.244 55.1171 98.337 55.2392 98.3967 55.2323C98.4555 55.2257 98.5792 55.2587 98.7026 55.2122C98.863 55.1518 98.7856 54.9366 98.989 54.9045C99.1214 54.8838 99.2181 55.0785 99.3799 55.0801C99.4629 55.0809 99.6014 54.9966 99.6645 55.0011C99.6756 55.0019 99.7546 54.8114 99.8516 54.8067C99.9935 54.7998 100.051 55.18 100.103 55.2539C100.352 55.6062 100.682 55.836 101.063 56.0239C100.374 56.656 98.9831 56.589 98.1163 56.8021C97.6468 56.9176 97.2463 57.0841 96.8166 57.2988C96.713 57.3662 96.6237 57.4489 96.5491 57.5469C96.4882 57.5065 96.4273 57.4661 96.3664 57.4257C96.131 57.4402 95.9083 57.3237 95.6433 57.3685C94.8248 57.5065 94.1839 58.1197 93.3521 58.2563C92.9783 58.3178 92.6711 58.4036 92.4277 58.0795C92.214 57.7953 92.2494 57.1781 92.4016 56.8759ZM91.2793 53.099C91.4648 53.2559 91.2416 53.7666 91.6008 53.7111C91.8556 53.6717 91.8048 53.2763 92.005 53.1925C92.2679 53.0826 92.4265 53.3434 92.6737 53.3193C93.1344 53.2739 93.108 52.8717 92.7187 52.695C93.1234 52.5882 93.2531 53.0667 93.6114 53.0623C94.0821 53.0567 93.9698 52.5014 94.3703 52.4094C94.5437 52.3695 94.4858 52.6242 94.5983 52.6559C94.8235 52.7191 94.9804 52.6105 95.1796 52.5149C95.3579 52.4295 95.4848 52.2644 95.6797 52.2084C95.7684 52.1828 95.9936 52.2297 96.0586 52.1822C96.1898 52.0866 96.3072 51.7143 96.4363 51.665C96.4099 51.675 96.8331 51.8871 96.8937 51.907C96.8566 52.0642 96.7705 52.0829 96.6353 51.9632C96.6353 52.318 97.6213 52.4285 97.4191 51.9901C97.9523 52.2108 97.5552 52.3244 97.5019 52.6326C97.4807 52.7565 97.4086 52.7531 97.43 52.8841C97.4398 52.9444 97.7193 52.8924 97.7158 52.9746C97.6923 53.5042 96.0046 53.667 95.6848 53.7137C95.0229 53.8104 94.3965 53.9731 93.7583 54.1734C93.2832 54.3225 92.4642 54.7497 91.9586 54.7232C91.2315 54.6851 91.1367 53.7364 91.2793 53.099ZM89.6546 47.6955C89.4773 47.1065 90.0461 45.8897 90.7869 46.0418C90.9691 46.0791 91.014 46.23 91.1552 46.297C91.3525 46.3906 91.6733 46.3414 91.8444 46.4381C92.2278 46.6551 92.0346 47.2082 92.4188 47.408C91.8122 47.5551 89.9364 48.6318 89.6546 47.6955ZM90.3567 49.9842C90.618 49.8438 91.0416 49.8257 91.2197 49.5556C91.3086 49.6171 91.4764 49.9902 91.6355 49.9331C91.7099 49.9065 91.7866 49.7043 91.7813 49.7044C91.9231 49.7004 91.9512 49.5084 92.168 49.53C92.3668 49.55 92.5895 49.7891 92.7667 49.8782C92.7363 49.2854 92.8882 49.2288 93.3688 48.9115C93.4742 48.842 93.5622 48.581 93.6594 48.4754C93.5664 49.0975 93.8008 49.1009 94.2975 49.1944C94.9202 49.3115 95.3082 49.6459 95.5577 50.2475C95.0271 50.144 94.3426 50.2686 94.1334 50.839C93.7099 50.0652 92.1707 51.1329 91.6727 51.3516C91.3031 51.514 90.8732 51.7321 90.5633 51.3539C90.3451 51.0874 90.4701 50.7669 90.4748 50.5302C90.476 50.4558 90.5528 50.4515 90.5457 50.3408C90.5367 50.1995 90.3528 50.143 90.3567 49.9842ZM96.0221 62.152C95.882 62.2051 95.1606 62.2349 95.156 61.9959C95.1521 61.7848 96.429 61.9975 96.0221 62.152ZM94.8504 61.379C94.3046 61.7155 93.694 60.5299 93.4933 60.1885C94.0658 60.2617 94.3453 59.7828 94.6826 59.4189C95.0034 60.1219 95.4906 59.7503 96.0031 59.5156C96.6075 59.2387 97.2698 59.2366 97.8889 59.0144C98.0822 58.945 98.2603 58.8419 98.4489 58.7625C98.6008 58.7057 98.7522 58.6475 98.9029 58.5878C99.0099 58.4913 99.0481 58.3723 99.0169 58.2314C98.9662 58.113 99.0008 58.0381 99.1206 58.0073C99.2632 58.0497 99.4087 58.0745 99.5573 58.0811C99.796 58.0338 100.139 57.8087 99.8508 57.5661C100.159 57.2858 100.469 57.5644 100.766 57.6872C100.695 57.4859 100.625 57.2846 100.554 57.0833C100.702 57.1459 101.139 57.7574 101.184 57.754C101.467 57.7328 101.437 57.3532 101.6 57.2C101.694 57.3157 101.72 58.1783 102.089 57.8877C102.247 57.7635 101.907 57.3403 101.824 57.2439C102.246 57.3392 102.614 57.8428 102.728 58.2338C102.528 58.2628 102.342 58.2225 102.172 58.1128C102.064 58.6573 103.071 58.4367 103.235 58.7212C103.554 59.2781 101.476 59.6649 101.205 59.7165C100.663 59.8198 100.023 59.8583 99.5266 60.0985C99.0506 60.3285 98.938 60.3943 98.3819 60.4374C97.7472 60.4866 97.1278 60.6958 96.5138 60.8586C95.9807 60.9999 95.323 61.0878 94.8504 61.379ZM106.452 41.4444C106.953 41.264 108.641 40.328 109.071 40.7443C109.025 40.7002 109.381 41.4343 109.377 41.3881C109.408 41.7699 109.398 41.9236 108.928 42.1065C108.592 42.2375 108.298 41.9591 107.996 42.0697C107.663 42.1912 107.896 42.4061 107.725 42.5562C107.537 42.7209 107.175 42.792 106.942 42.8641C106.37 43.0406 105.794 43.1881 105.225 43.3783C104.068 43.7653 102.842 44.1254 101.653 44.3991C100.764 44.6036 99.2555 45.1119 98.4365 44.5116C98.3565 44.8528 98.1612 44.8062 97.8899 44.8559C97.677 44.8948 97.2921 45.0002 97.1029 45.0057C96.788 45.0149 95.9125 44.9323 96.033 44.4906C95.9999 44.6123 96.714 44.1959 96.5904 44.17C96.8937 44.2338 96.7954 44.0811 97.0438 43.9962C97.3684 43.8853 97.7076 43.8913 98.0389 43.7738C98.8741 43.4777 99.5747 43.0935 100.456 42.908C102.47 42.4843 104.509 42.1435 106.452 41.4444ZM25.7264 87.0756C25.5632 87.0799 25.4362 86.6164 25.9326 86.9474C25.8639 86.9902 25.7952 87.0328 25.7264 87.0756ZM21.8051 86.4757C21.5832 86.5325 21.4947 86.4086 21.5399 86.1044C21.8494 85.9821 21.9377 86.1058 21.8051 86.4757ZM18.7779 85.8548C18.7211 85.5835 18.9222 85.5224 19.1045 85.4006C19.0862 85.76 19.0862 85.76 18.7779 85.8548ZM11.161 83.6224C10.8541 83.555 10.4453 83.2549 10.375 83.7587C10.3236 83.6421 10.0617 83.0934 10.1741 82.9664C10.2329 82.9 10.4552 83.2073 10.4316 83.1769C10.7001 82.6337 11.1631 83.2892 11.4218 83.4831C11.3349 83.5296 11.2479 83.5761 11.161 83.6224ZM90.9399 23.5896C91.0458 23.3657 91.1708 23.2945 91.3144 23.3764C91.0888 23.9004 90.3248 24.1843 90.9399 23.5896ZM96.2482 18.6718C96.4374 19.0266 96.1528 19.1765 95.9495 19.4715C96.0684 19.1533 96.1508 18.9329 96.2482 18.6718ZM119.318 53.3055C120.001 53.3053 121.455 52.945 121.867 53.7253C122.139 53.1951 122.449 54.1893 122.685 54.3488C122.711 54.3668 122.882 54.2366 122.961 54.2846C123.08 54.3568 123.183 54.5536 123.252 54.6706C123.458 55.0233 123.546 55.4426 123.661 55.8307C122.469 55.8307 121.246 55.5531 120.055 55.4522C119.273 55.386 118.507 55.384 117.724 55.4262C117.568 55.4346 117.259 55.3832 117.126 55.4125C116.991 55.4423 116.746 55.7176 116.597 55.6733C116.828 56.1079 119.794 57.1601 120.02 56.6788C119.752 56.5166 119.156 56.3921 119.157 56.0001C119.157 55.561 119.715 55.5618 120.011 55.5747C120.658 55.603 121.741 55.8183 122.006 56.4909C122.12 56.7792 122.155 57.5052 122.03 57.7836C121.949 57.9633 121.813 58.1794 121.597 58.2159C121.508 58.2309 121.38 58.113 121.367 58.1159C120.923 58.21 120.102 58.5664 119.618 58.0639C119.269 58.5156 117.587 58.0222 117.073 57.8518C116.173 57.5538 114.933 57.1446 114.386 56.3047C113.72 55.281 115.075 54.4159 115.853 53.9998C116.916 53.4311 118.131 53.3059 119.318 53.3055ZM123.861 55.6724C124.07 55.7314 124.279 55.7906 124.489 55.8497C124.433 56.2165 123.607 55.9263 123.861 55.6724ZM130.186 69.0076C130.25 67.5378 129.825 66.2433 129.58 64.8217C129.519 64.4693 129.581 63.8532 129.314 63.5634C129.058 63.2864 128.487 63.5116 128.464 63.0218C128.213 63.3168 128.238 63.3784 127.928 63.0392C127.984 63.1847 127.993 63.3325 127.952 63.4832C127.76 63.3728 127.062 63.0062 127.12 63.5074C126.546 63.3805 126.713 63.0215 126.385 62.7475C126.339 62.7086 126.152 62.8468 126.079 62.7879C125.947 62.6812 125.882 62.5843 125.771 62.4469C125.63 62.6175 125.438 62.7407 125.266 62.8756C125.165 62.6572 124.97 62.497 124.735 62.4439C124.955 62.9028 125.497 63.4971 124.753 63.7583C124.309 63.9141 123.582 63.7231 123.112 63.7594C121.37 63.8946 119.461 63.5147 117.776 63.0996C116.045 62.6732 114.295 62.0712 112.738 61.1914C112.407 61.0038 112.198 60.7817 111.912 60.5491C111.634 60.3228 111.432 60.2871 111.098 60.1425C110.497 59.8821 109.948 59.4646 109.49 58.9992C108.507 57.9986 107.594 56.6899 107.868 55.2249C108.141 53.7647 109.144 52.6236 110.219 51.662C111.487 50.5263 112.919 49.5781 114.439 48.8137C115.119 48.4721 116.857 47.1884 117.529 47.9395C117.958 48.4193 117.716 49.0315 117.13 49.1382C116.985 49.1646 116.834 49.0676 116.688 49.134C116.477 49.2299 116.551 49.3432 116.464 49.4232C116.313 49.562 116.153 49.7786 115.927 49.899C115.139 50.3191 114.377 50.652 113.624 51.1637C113.277 51.3994 112.943 51.5008 112.637 51.7066C112.332 51.9111 112.263 52.2496 111.854 52.0408C111.999 52.6361 111.124 53.2736 110.781 53.6384C110.25 54.2032 109.612 54.924 109.86 55.7596C110.346 57.3953 112.539 58.6377 113.943 59.3568C115.694 60.254 117.626 60.9682 119.576 61.2638C120.546 61.4107 121.548 61.5015 122.525 61.5946C123.285 61.6672 124.453 61.4015 125 62.0865C125.017 61.2878 127.511 61.3582 128.042 61.2561C126.978 57.6172 124.888 54.3819 122.653 51.3592C121.556 49.8753 120.479 48.3493 119.229 46.989C117.86 45.4998 116.297 44.169 114.811 42.7987C111.897 40.1111 108.601 37.7125 105.248 35.5995C101.902 33.4915 98.437 31.4168 94.7714 29.9138C90.5848 28.1973 86.1772 27.0682 81.7647 26.1067C82.3633 25.344 83.3369 24.972 84.1033 24.414C84.3717 24.2186 84.7343 23.7497 85.0829 23.6857C85.4603 23.6162 85.7575 24.0223 86.0262 24.2262C86.7975 24.8112 87.3308 24.5628 88.2142 24.5276C88.7428 24.5065 89.9945 24.8008 90.2173 24.0859C90.5137 24.4804 90.0839 24.7968 89.864 25.0861C90.0241 25.3094 90.1531 25.0777 90.3113 25.0428C90.36 25.0024 90.4086 24.9618 90.4574 24.9214C90.5359 24.8079 90.6067 24.8072 90.6696 24.9192C90.7639 25.0611 90.8588 25.0297 90.9544 24.8249C90.9806 24.8085 91.0067 24.7919 91.0329 24.7755C91.1472 24.7147 91.2574 24.6185 91.3636 24.5427C92.1663 23.9691 92.8817 23.4804 93.7678 23.0579C94.512 22.7032 94.1118 22.0247 94.6024 21.5455C94.7135 21.4371 94.9003 21.4915 95.019 21.3996C95.1352 21.3093 95.1527 21.207 95.2375 21.1103C95.4414 20.8778 95.1988 20.6079 95.7188 20.8926L95.5312 19.8369C96.5508 20.8261 96.5468 17.9794 96.6862 17.5581C96.6678 17.6138 96.7777 17.1828 96.7776 17.1865C96.8075 16.3322 96.9241 15.7131 95.9236 15.6635C96.3024 15.4252 96.4183 15.8905 96.5932 15.4088C96.6807 15.1674 96.4073 14.7526 96.843 14.9082C96.9349 14.3952 96.8442 13.9801 96.7299 13.4816C96.6128 12.9714 96.6816 12.6309 96.687 12.1207C96.6929 11.5419 96.4219 10.9603 96.3352 10.3903C96.2673 9.94399 96.3373 9.24003 95.7603 9.40399C95.6792 9.27704 95.9642 8.88652 95.9526 8.69344C95.9346 8.39351 95.6091 8.08876 95.5169 7.80074C95.3812 7.94073 95.1901 7.98739 95.0055 7.92416C95.1788 7.53284 95.0161 7.40138 94.8502 7.06396C94.7551 6.87071 94.8126 6.65735 94.609 6.51888C94.4924 6.43939 94.2935 6.57327 94.2021 6.4801C94.0061 6.28058 94.0785 6.01589 93.9437 5.75298C93.7746 5.42328 93.3883 5.17147 93.1221 4.924C91.6256 3.53298 90.0001 2.46988 88.0094 1.92635C86.0011 1.37799 83.6598 1.18152 81.6583 1.81404C80.8583 2.06682 80.1481 2.04091 79.428 2.51301C79.1946 2.66619 79.1695 2.62516 79.0509 2.88051C79.0235 2.94005 79.2721 3.09854 79.1199 3.19588C78.9545 3.3016 78.7719 3.08663 78.6876 2.90819C77.6459 3.66218 76.6698 4.66735 76.0766 5.81991C75.487 6.96517 75.4329 8.31065 75.2078 9.55524C74.1695 8.36906 72.7651 7.80042 71.2383 8.37067C69.9075 8.86754 68.8763 9.95976 68.6159 11.3747C68.4571 12.2374 68.6306 13.1109 69.0224 13.8892C69.1918 14.2255 69.3969 14.5978 69.7084 14.8242C69.9548 15.0031 70.3767 14.978 70.4927 15.3008C70.6705 15.7953 69.6436 16.8632 69.377 17.296C68.8948 18.0793 68.4466 18.8882 68.1055 19.7437C66.8825 18.0161 65.7117 16.1292 64.321 14.5362C63.0086 13.0327 61.4439 11.6843 59.9094 10.4135C56.7244 7.77596 53.4127 5.2981 49.85 3.19685C46.5326 1.24025 42.5254 0.153986 38.6592 0.538065C34.8817 0.913455 31.9896 3.30256 29.5559 6.05805C24.8765 11.3561 22.0104 18.9075 21.7305 25.9601C21.6463 28.0787 21.8077 30.1697 22.331 32.2246C22.5802 33.203 22.544 34.1654 22.6888 35.1564C22.8523 36.2744 23.135 37.3883 23.4084 38.4834C24.4497 42.6552 25.7766 46.8238 27.2654 50.8573C28.0395 52.9549 28.9761 55.0054 30.2433 56.855C30.8285 57.7094 31.5867 58.3778 32.2164 59.1891C32.8274 59.9759 32.9888 60.9417 33.1231 61.9071C33.4453 64.222 33.6589 66.5468 33.8527 68.8752C33.9349 69.862 34.031 70.8402 34.1616 71.8201C34.2755 72.6745 33.989 72.6325 33.2702 72.9226C33.416 72.1549 29.982 72.6772 29.6577 72.7297C29.3049 72.7866 28.9313 72.7874 28.6534 72.8328C28.3427 72.8833 28.0386 72.9566 27.6807 72.9463C27.1547 72.9311 26.1698 72.7968 25.969 73.4682C25.8308 72.6898 24.9178 73.541 25.5933 73.3965C24.9 73.474 24.1925 73.345 23.4908 73.4103C22.6866 73.485 21.8754 73.5561 21.0769 73.6771C20.5209 73.7612 19.9904 73.9754 19.4336 74.0375C18.7209 74.1172 17.9772 74.1098 17.2576 74.1732C14.6035 74.4073 11.8525 74.9862 9.2726 75.6491C8.6882 75.7993 8.01674 75.9059 7.4584 76.147C7.30892 76.2113 7.17441 76.3555 7.0312 76.4109C6.79113 76.5035 6.82396 76.4395 6.61076 76.482C5.33334 76.7373 4.01553 77.1544 2.73827 77.4817C2.02981 77.6633 0.877415 77.8271 0.29951 78.3216C0.0404544 78.543 -0.185937 78.9358 0.229196 79.1874C0.56082 79.3884 1.03414 79.0675 1.30252 78.8941C1.06342 79.5173 0.61247 79.8278 0.856015 80.5368C1.0483 81.097 1.48242 81.7875 2.15033 81.4261C2.23979 81.6341 2.276 82.048 2.5394 82.1244C2.77609 82.1931 2.94745 81.8932 3.17931 81.9638C3.26234 81.9891 3.2308 82.146 3.30514 82.187C3.43322 82.2575 3.56307 82.2874 3.70981 82.3371C3.83596 82.3799 4.03903 82.4678 4.17064 82.4771C4.25415 82.4831 4.45094 82.3402 4.4503 82.3402C4.64209 82.3693 4.74523 82.7363 4.88329 82.8424C5.06254 82.9801 5.21057 83.0115 5.43503 83.0614C5.90165 83.165 6.50312 83.3426 6.81109 82.8649C6.74061 83.206 7.2045 83.1725 7.40917 83.2158C7.38648 83.0361 7.2872 82.8715 7.13402 82.7728C7.59163 82.8031 7.40611 83.258 7.74433 83.3782C7.98537 83.4636 7.95801 83.2464 8.14241 83.2223C8.38538 83.1906 8.56977 83.3669 8.94918 83.2042C9.0314 83.5696 9.06149 83.9381 9.51026 83.9927C9.77366 84.0247 10.3878 83.549 10.3531 83.9449C10.9415 83.7724 11.1648 83.889 11.4723 84.4076C11.5243 84.0892 11.7758 84.1816 12.0065 84.1619C12.3723 84.1307 12.3816 84.1602 12.6651 83.9531C12.691 83.9343 12.914 83.4234 13.0131 83.7408C13.0577 83.8831 12.7631 84.2178 12.654 84.3029C12.7895 84.3714 13.2334 84.6113 13.4041 84.5672C13.5519 84.5291 13.5523 84.2767 13.7298 84.2636C13.6864 84.4088 13.6431 84.5541 13.5995 84.6992C13.9448 84.7494 14.2333 84.5183 14.506 84.3491C14.766 85.0065 15.5093 84.6361 15.9134 85.1309C16.1273 85.3927 16.1373 85.5916 16.5447 85.66C16.9616 85.7299 17.3257 85.547 17.68 85.8908C17.5677 85.6775 17.2879 85.5005 17.5659 85.2712C17.7552 85.5398 17.8528 85.8632 18.071 86.1129C18.1011 85.9859 18.1312 85.859 18.1613 85.7319C18.7301 86.3403 19.4461 86.3456 20.1747 86.6828V86.2376C20.6963 87.0338 20.7242 86.53 21.3473 86.2048C21.305 86.4389 21.2626 86.673 21.2202 86.907C21.6687 86.8732 22.0877 87.4045 22.4558 86.9531C22.6782 87.3261 22.9477 87.1425 23.3122 87.261C23.5194 87.3284 23.6737 87.5324 23.8753 87.6063C24.1777 87.717 24.2679 87.7118 24.5526 87.8082C24.8057 87.8938 24.9495 88.0605 25.2663 88.1139C25.4721 88.1487 25.6588 88.1461 25.8557 88.1366C25.9318 88.1329 25.9067 87.9617 26.0758 88.0016C26.3373 88.0635 26.532 88.3915 26.7203 88.5596C27.0035 87.8478 27.7964 88.8013 28.1797 88.9282C28.2164 88.7458 28.2098 88.5258 28.3419 88.3759C28.497 88.7157 28.5562 89.0013 28.8782 89.2201C29.064 89.3464 29.3369 89.4369 29.5515 89.483C29.6872 89.5122 29.9337 89.4772 30.019 89.5191C30.1644 89.5904 30.218 89.7807 30.3649 89.7986C30.4513 89.809 30.5794 89.5817 30.6441 89.5994C30.9401 89.6802 31.1046 90.0398 31.4035 90.2343C32.2932 90.8131 33.4128 90.8692 34.4039 90.9962C34.6527 91.0279 34.6887 90.96 34.8908 91.1059C34.9986 91.184 34.9497 91.4211 35.0823 91.4876C35.5819 91.738 35.5822 91.2037 35.687 90.8718C35.8522 91.0898 35.8807 91.3777 36.1068 91.5511C36.2302 91.5476 36.3538 91.5503 36.477 91.5595C36.5465 91.6388 36.5922 91.7304 36.6135 91.8342C36.9128 92.0363 37.2518 91.966 37.5609 92.1177C37.6622 92.1674 37.8418 92.4681 37.9667 92.5545C38.1902 92.7093 38.5358 92.792 38.7912 92.8593C39.3266 93.0002 40.0945 92.813 40.4131 93.3721C40.8361 92.9187 40.6724 93.4601 40.9597 93.5739C41.1293 93.641 41.3843 93.374 41.5724 93.4006C41.9111 93.4482 42.0331 93.8149 42.1415 94.0815C42.3478 94.0355 42.2062 93.4519 42.2004 93.324C42.4567 93.2937 42.5137 93.9687 42.5579 94.1171C42.9626 93.9222 42.2984 93.3158 42.7335 93.1213C42.6936 93.6379 43.1053 94.0633 42.37 94.1374C42.4715 94.4486 44.8432 94.7942 45.008 94.5195C45.0445 95.0273 45.3857 94.553 45.5115 94.3792C45.5256 94.6754 45.4248 95.0959 45.7572 95.2336C45.9831 95.3271 46.4925 95.0852 46.5812 94.8638C46.6824 95.2021 46.852 95.1911 47.0628 95.4059C47.2076 95.5535 47.303 95.8093 47.4549 95.9329C47.7344 96.1603 48.2543 96.1255 48.5799 96.0746C49.2171 95.9752 49.1418 95.8531 49.3688 96.5154C49.4202 96.264 49.5811 95.7384 49.8617 96.1292C50.0403 96.3775 49.6601 96.9247 49.5502 97.1427C49.7957 97.0079 50.0395 96.848 50.3188 96.7899C50.3344 96.876 50.3488 97.0586 50.3076 97.1382C50.3159 97.1221 50.6139 97.322 50.7245 97.3773C50.6979 97.364 50.8118 96.8665 50.8086 96.8827C51.2017 97.1254 50.929 97.5892 51.2772 97.8285C51.3671 97.8905 51.5782 97.8182 51.687 97.8559C51.8764 97.9215 52.0402 98.099 52.2085 98.2028C52.0741 98.0226 52.0934 97.7201 52.1026 97.512C52.1882 97.5593 52.2494 97.7363 52.3358 97.7503C52.3684 97.7556 52.7071 97.8005 52.7049 97.7989C53.0574 98.0457 52.9849 98.0768 52.6822 98.3737C52.7903 98.5436 53.2423 98.2483 53.3646 98.1992C53.3902 98.2657 53.3968 98.507 53.4449 98.5502C53.474 98.6216 53.5033 98.693 53.5326 98.7645C53.6228 98.6972 53.7197 98.6747 53.823 98.6971C53.8883 98.7198 54.3982 98.9272 54.4328 98.8562C54.3213 98.8202 54.2201 98.7648 54.1297 98.6903C54.424 98.4258 54.6175 98.2852 54.8887 98.6671C54.9228 98.7153 54.8055 98.8881 54.8402 98.9508C54.9698 99.1844 55.2359 99.3703 55.4166 99.5606C55.4914 99.2979 55.3173 98.6399 55.7328 98.6639C56.0647 98.6829 56.3172 99.4871 56.2023 99.7372C56.3342 99.5928 57.122 99.4495 57.2707 99.4945C57.6911 99.6219 57.5732 100.011 58.0905 99.4411C58.4432 99.6845 58.1323 99.7767 58.1959 100.073C58.2891 100.093 58.3772 100.07 58.4607 100.004C58.3983 101.265 59.3288 100.302 59.933 100.495C60.1702 100.57 60.2309 100.839 60.4854 100.918C60.6201 100.96 60.7699 100.861 60.9009 100.885C61.0058 100.87 61.11 100.852 61.2137 100.83C61.345 100.764 61.4066 100.837 61.3985 101.05C61.6096 101.16 61.5298 101.203 61.7767 101.224C61.9356 101.238 62.0819 101.072 62.2626 101.1C62.5743 101.149 62.5331 101.389 62.7323 101.514C62.9115 101.626 63.1136 101.623 63.3344 101.601C63.4469 101.59 63.7627 101.445 63.8007 101.444C64.0366 101.441 63.9086 101.391 64.1918 101.594C64.4123 101.752 64.5048 101.854 64.7754 101.927C65.0858 102.01 65.6364 102.192 65.8453 101.967C66.1274 102.39 66.3483 102.08 66.7206 102.108C66.9111 102.122 66.9414 102.197 67.111 102.226C67.3858 102.274 67.7287 102.233 68.021 102.326C68.4817 102.474 68.5337 102.549 69.0045 102.569C69.0894 102.536 69.1744 102.502 69.2592 102.469C69.2846 102.611 69.3514 102.727 69.4597 102.816C69.7231 102.871 69.8961 102.739 70.1133 102.593C70.2752 103.097 70.8003 103.141 71.2496 103.207C71.9745 103.314 72.6676 103.373 73.3666 103.611C73.957 103.812 74.5485 104.038 75.1163 104.296C75.6161 104.522 76.0877 104.861 76.6531 104.702C77.9342 104.342 79.1757 103.027 80.2475 102.271C81.5171 101.377 82.8862 100.64 84.2127 99.8361C89.4936 96.6351 95.0726 93.9272 100.279 90.6071C103.122 88.7945 105.76 86.6408 108.813 85.1743C108.378 86.9702 107.638 88.7932 107.772 90.6734C107.826 91.4311 108.049 92.3262 108.637 92.8551C109.363 93.5092 110.172 93.0928 110.867 92.6255C112.356 91.6245 113.349 90.1638 114.463 88.7923C115.781 87.1697 116.803 85.4265 117.771 83.5772C118.003 83.9027 117.826 84.448 117.83 84.8089C117.834 85.2694 117.959 85.7132 118.172 86.1243C118.723 87.1853 119.772 87.4426 120.72 86.7156C122.545 85.3166 123.603 82.825 124.581 80.8185C125.138 81.8557 125.93 83.1613 127.269 82.4205C128.373 81.8092 129.022 80.4433 129.36 79.2864C130.347 75.9093 130.034 72.4693 130.186 69.0076Z"
          fill="black"/>
    <path fill-rule="evenodd" clip-rule="evenodd"
          d="M128.51 48.7228C128.384 48.4168 128.329 48.4669 128.561 48.1701C128.741 48.3479 128.597 48.4948 128.51 48.7228ZM134.094 67.245C133.739 66.2378 133.958 65.1439 133.743 64.1108C133.644 63.6368 133.488 63.1769 133.432 62.6943C133.407 62.4802 133.217 61.5162 133.347 61.3645C132.947 61.1225 132.946 60.9434 132.853 60.4689C132.996 60.3178 132.978 60.1889 132.799 60.0819C132.683 59.9409 132.566 59.7998 132.45 59.6589C132.96 59.9081 132.658 59.2701 132.606 58.9025C132.565 58.6119 132.537 58.3087 132.44 58.0302C132.321 57.6878 132.056 57.5147 132.607 57.5147C132.426 57.3082 132.154 57.0952 132.064 56.8424C131.934 56.4786 132.148 55.9978 131.883 55.6765C131.735 55.4972 130.973 55.4271 131.107 55.04C131.175 54.8427 131.484 54.9899 131.58 54.8517C131.955 54.3085 130.846 54.0834 130.792 53.8523C130.721 53.5527 131.122 53.4858 131.146 53.2056C131.17 52.9315 130.744 52.4809 130.631 52.2357C130.478 52.273 130.31 52.5158 130.134 52.3998C130.101 52.378 130.151 51.4288 130.111 51.3028C130.072 51.1789 129.991 50.8503 129.963 50.7895C129.849 50.548 129.523 50.4304 129.472 50.1451C129.441 49.9748 130.108 49.7171 129.343 49.709C129.618 49.2247 129.114 48.9304 128.931 48.5166C128.695 47.9845 128.556 47.4097 128.314 46.8749C128.079 46.355 127.816 45.8616 127.477 45.4019C127.17 44.9857 127.037 44.5854 126.792 44.1458C126.743 44.1071 126.694 44.0685 126.645 44.0299C126.44 44.0595 126.374 43.9664 126.448 43.7503C126.291 43.5184 126.175 43.2709 126.037 43.0288C125.876 42.7473 125.66 42.5179 125.494 42.2442C125.274 41.8814 125.209 41.4722 124.961 41.1082C124.655 40.6604 124.311 40.2656 124.028 39.801C123.673 39.219 123.28 38.8573 122.833 38.4066C122.621 38.192 122.595 37.6558 122.335 37.3511C122.051 37.0191 121.771 36.9292 121.574 36.4935C121.318 35.9266 120.943 35.656 120.578 35.166C120.276 34.7618 120.129 34.2973 119.797 33.9063C119.511 33.5705 119.187 33.2636 118.882 32.9452C118.497 32.5431 118.213 32.0544 117.812 31.6721C117.87 31.7273 117.464 31.4052 117.484 31.4155C117.394 31.3696 117.104 31.3328 117.146 31.3577C116.541 31.0023 115.784 29.7014 114.874 30.3907C114.395 30.7532 114.625 31.4181 114.959 31.7791C115.102 31.9342 115.848 32.6989 116.009 32.3764C116.183 32.6229 116.719 33.8146 117.164 33.4731C117.119 33.8804 117.355 33.7452 117.511 34.0205C117.613 34.2022 117.563 34.2913 117.638 34.5748C117.843 35.3543 118.627 36.1155 119.045 36.7952C120.084 38.4868 121.231 40.0911 122.271 41.7847C123.262 43.3987 124.372 44.9302 125.324 46.5659C126.405 48.426 127.753 50.1818 128.568 52.187C128.596 52.2544 128.822 52.3611 128.878 52.4623C128.976 52.6381 128.955 52.9422 129.018 53.1414C129.237 53.832 129.591 54.5119 129.995 55.0839C130.349 55.5857 130.375 56.2678 130.619 56.8566C130.963 57.6863 131.326 58.5074 131.66 59.3414C132.18 60.6394 132.532 61.8835 132.891 63.2387C133.124 64.1169 133.309 64.9946 133.384 65.9015C133.452 66.7355 133.469 67.6042 133.777 68.3937C133.988 68.0687 134.236 67.6476 134.094 67.245Z"
          fill="black"/>
    <path fill-rule="evenodd" clip-rule="evenodd"
          d="M15.1634 85.1152C14.7898 85.0397 14.4382 84.939 14.359 84.51C14.3048 84.7123 14.2508 84.9145 14.1965 85.1168C14.6514 85.2198 15.1064 85.3229 15.5613 85.4259C15.4551 85.2387 15.3776 85.1585 15.1634 85.1152Z"
          fill="black"/>
    <path fill-rule="evenodd" clip-rule="evenodd"
          d="M16.1661 14.713C16.1944 14.592 16.2311 14.4734 16.2763 14.3577C16.307 14.4705 16.4577 14.7144 16.37 14.8208C16.2583 14.9558 16.1453 14.8793 16.1661 14.713ZM17.9977 11.2281C18.1203 11.2822 18.3856 11.2926 18.5378 11.3383C18.143 11.678 18.0735 11.5781 17.5629 11.5386C17.5402 11.195 17.6799 11.0883 17.9977 11.2281ZM14.5751 19.7364C14.628 19.7378 14.6811 19.7391 14.7344 19.7404C14.7376 19.5908 14.7337 19.4413 14.7225 19.292C15.2608 19.4096 14.9561 18.4688 14.787 18.2738C15.3122 18.2913 15.568 16.6285 15.7344 16.3082C15.8821 16.0237 16.0494 15.9136 16.1574 15.5667C16.2519 15.2631 16.354 14.9899 16.4903 14.7027C16.8034 14.0423 17.2142 13.4426 17.1384 12.673C17.4038 13.2505 17.6371 12.674 17.8054 12.3979C18.0765 11.953 18.738 11.3853 18.8083 10.8569C18.8704 10.3917 18.5248 10.3671 18.7288 9.93572C18.9351 9.49902 19.1047 9.54279 19.4661 9.40312C19.7065 9.31012 19.7543 9.42308 19.9239 9.11961C20.0338 8.92315 19.995 8.77672 20.1358 8.61566C20.1939 8.66618 20.26 8.6871 20.334 8.67841C20.4482 8.52764 20.5232 8.35966 20.5588 8.17446C20.6519 7.92441 20.697 7.6948 20.8373 7.45666C20.9704 7.23108 21.2066 6.62752 21.3318 6.51874C21.4647 6.40321 22.2185 6.46194 22.2153 6.46612C22.5266 6.07448 21.9553 5.68428 22.7464 5.76683C22.5902 5.47591 23.139 5.11484 23.2983 4.95297C23.6963 4.54894 23.728 4.36197 23.8119 3.85384C23.8546 3.59478 23.5762 3.62471 23.9494 3.56566C24.1037 3.54136 24.2517 3.73863 24.363 3.70967C24.8546 3.58223 24.3404 3.60653 24.476 3.4062C24.5188 3.34264 24.7375 3.08616 24.7354 3.0889C24.7248 3.10177 24.7846 2.86572 24.8342 2.80506C24.9281 2.79702 25.0207 2.7806 25.1116 2.75583C25.1578 2.6625 25.1986 2.56692 25.234 2.46909C25.5898 2.17239 26.1221 2.03964 26.3681 1.71365C26.5272 1.50286 26.4796 1.29642 26.6852 1.08628C26.881 0.886116 27.1401 1.03109 27.1789 0.57895C27.2283 0.00371661 26.6104 -0.252282 26.3576 0.328261C25.6722 -0.516004 22.8071 2.58157 22.4761 2.98624C21.0384 4.74299 19.6254 6.54319 18.4461 8.48581C17.2971 10.3787 16.354 12.3704 15.6169 14.4581C15.2615 15.4647 15.0451 16.4668 14.828 17.508C14.7551 17.8567 14.2105 19.4106 14.4372 19.7583C14.483 19.751 14.5291 19.7436 14.5751 19.7364Z"
          fill="black"/>
    <path fill-rule="evenodd" clip-rule="evenodd"
          d="M127.74 62.8169C127.982 62.6553 127.982 62.6553 128.024 62.3501C127.7 62.4093 127.7 62.4093 127.74 62.8169Z"
          fill="black"/>
    <path fill-rule="evenodd" clip-rule="evenodd"
          d="M8.37458 83.3519C8.37751 83.3515 8.37967 83.3523 8.38137 83.354C8.37644 83.3477 8.35854 83.329 8.37458 83.3519Z"
          fill="black"/>
    <path fill-rule="evenodd" clip-rule="evenodd"
          d="M8.21259 83.5159C8.28741 83.6776 8.4076 83.7178 8.57333 83.6363C8.63866 83.7296 8.00663 83.054 8.21259 83.5159Z"
          fill="black"/>
    <path fill-rule="evenodd" clip-rule="evenodd"
          d="M19.1421 9.70996C18.7628 10.4535 19.2378 9.9127 19.2135 10.1542C19.2294 9.99557 19.2953 9.7695 19.1421 9.70996Z"
          fill="black"/>
    <path fill-rule="evenodd" clip-rule="evenodd"
          d="M80.7993 21.2183C80.9636 22.5515 82.7876 21.9209 83.1979 21.1145C83.4967 20.5273 84.2512 18.2073 83.4394 17.7171C82.8376 17.3538 82.7091 18.9197 82.5607 19.2696C82.3121 19.8554 82.1179 19.4403 81.5652 19.5906C80.9552 19.7564 80.7314 20.6654 80.7993 21.2183Z"
          fill="black"/>
    <path fill-rule="evenodd" clip-rule="evenodd"
          d="M78.8063 18.7778C79.4583 18.9226 80.0974 18.8479 80.5604 18.333C80.8169 18.0479 81.1582 17.4823 80.6964 17.2064C80.2779 16.9565 79.8034 17.5417 79.3627 17.4207C78.7633 17.2561 79.0719 16.6134 78.8663 16.189C78.1107 16.6241 77.6891 18.5296 78.8063 18.7778Z"
          fill="black"/>
    <path fill-rule="evenodd" clip-rule="evenodd"
          d="M79.4824 22.1443C78.8539 22.143 78.8488 22.916 79.1769 23.2473C79.4908 23.5643 80.2847 23.8851 80.7103 23.6386C81.5499 23.152 79.991 22.1945 79.4824 22.1443Z"
          fill="black"/>
    <path fill-rule="evenodd" clip-rule="evenodd"
          d="M42.9138 52.8831C43.048 52.9483 43.4435 53.2836 43.6102 53.1322C43.375 52.8952 43.1396 52.6582 42.9043 52.4211C42.7743 52.5637 42.6852 52.7721 42.9138 52.8831Z"
          fill="black"/>
    <path fill-rule="evenodd" clip-rule="evenodd"
          d="M39.9437 18.9707C39.8769 19.0206 39.8099 19.0703 39.7432 19.12C39.9686 19.3078 39.963 19.3636 40.1902 19.1858C40.1227 19.097 40.0407 19.0254 39.9437 18.9707Z"
          fill="black"/>
    <path fill-rule="evenodd" clip-rule="evenodd"
          d="M82.5399 63.2057C82.4136 62.9789 82.175 63.3972 82.0136 63.4653C81.751 63.5758 81.5355 62.9901 81.6108 63.6921C81.0173 63.4204 80.657 64.0439 80.2742 64.3686C79.7334 64.8275 79.0719 65.0764 78.7112 65.7281C80.4092 66.1253 82.2749 64.6614 83.5411 63.6999C83.7477 63.5428 84.7803 62.7507 84.0804 62.6741C83.7942 62.6429 82.7523 63.5871 82.5399 63.2057Z"
          fill="black"/>
    <path fill-rule="evenodd" clip-rule="evenodd"
          d="M82.0362 61.831C82.369 61.5691 81.6515 61.5451 81.5381 61.5176C81.5479 61.7259 81.5574 61.9342 81.5672 62.1425C81.7278 62.0452 81.8842 61.9412 82.0362 61.831Z"
          fill="black"/>
    <path fill-rule="evenodd" clip-rule="evenodd"
          d="M80.7867 62.7049C80.8861 62.6428 81.1634 62.4489 80.9748 62.3044C80.8044 62.4129 80.6826 62.5899 80.6559 62.7918C80.6995 62.7629 80.7431 62.7339 80.7867 62.7049Z"
          fill="black"/>
    <path fill-rule="evenodd" clip-rule="evenodd"
          d="M53.2862 45.8088C53.0736 45.8922 52.9784 46.024 53.0007 46.2045C53.3274 46.1377 53.2651 45.8293 53.2862 45.8088Z"
          fill="black"/>
</svg>