<svg width="19" height="19" viewBox="0 0 19 19" fill="none" xmlns="http://www.w3.org/2000/svg">
    <path d="M18.6939 6.63944L12.3605 0.306111C12.2633 0.211163 12.1486 0.135895 12.0228 0.0844444C11.8919 0.0312623 11.7523 0.00263686 11.6111 0H3.16666C2.32681 0 1.52136 0.33363 0.927494 0.927495C0.33363 1.52136 0 2.32681 0 3.16667V15.8333C0 16.6732 0.33363 17.4786 0.927494 18.0725C1.52136 18.6664 2.32681 19 3.16666 19H15.8333C16.6732 19 17.4786 18.6664 18.0725 18.0725C18.6664 17.4786 19 16.6732 19 15.8333V7.38889C19.0008 7.24997 18.9742 7.11226 18.9216 6.98365C18.8691 6.85505 18.7917 6.73808 18.6939 6.63944ZM6.33333 2.11111H10.5555V4.22222H6.33333V2.11111ZM12.6667 16.8889H6.33333V13.7222C6.33333 13.4423 6.44454 13.1738 6.64249 12.9758C6.84045 12.7779 7.10893 12.6667 7.38888 12.6667H11.6111C11.891 12.6667 12.1595 12.7779 12.3575 12.9758C12.5554 13.1738 12.6667 13.4423 12.6667 13.7222V16.8889ZM16.8889 15.8333C16.8889 16.1133 16.7777 16.3818 16.5797 16.5797C16.3818 16.7777 16.1133 16.8889 15.8333 16.8889H14.7778V13.7222C14.7778 12.8824 14.4441 12.0769 13.8503 11.4831C13.2564 10.8892 12.451 10.5556 11.6111 10.5556H7.38888C6.54903 10.5556 5.74358 10.8892 5.14971 11.4831C4.55585 12.0769 4.22222 12.8824 4.22222 13.7222V16.8889H3.16666C2.88671 16.8889 2.61823 16.7777 2.42027 16.5797C2.22232 16.3818 2.11111 16.1133 2.11111 15.8333V3.16667C2.11111 2.88672 2.22232 2.61823 2.42027 2.42028C2.61823 2.22232 2.88671 2.11111 3.16666 2.11111H4.22222V5.27778C4.22222 5.55773 4.33343 5.82621 4.53138 6.02417C4.72934 6.22212 4.99782 6.33333 5.27777 6.33333H11.6111C11.891 6.33333 12.1595 6.22212 12.3575 6.02417C12.5554 5.82621 12.6667 5.55773 12.6667 5.27778V3.59944L16.8889 7.82167V15.8333Z" fill="white"/>
</svg>
