<svg width="18" height="24" viewBox="0 0 18 24" fill="none" xmlns="http://www.w3.org/2000/svg">
    <path d="M16.7496 8.57274L16.3715 20.2727C16.3393 21.2747 15.9265 22.2244 15.2207 22.9204C14.5148 23.6163 13.5715 24.0035 12.591 24H5.40803C4.42814 24.0036 3.48541 23.6168 2.77967 22.9217C2.07393 22.2267 1.66068 21.2779 1.62751 20.2765L1.24946 8.57274C1.24119 8.31644 1.33283 8.06728 1.50423 7.88007C1.67563 7.69285 1.91274 7.58293 2.1634 7.57447C2.41407 7.56601 2.65775 7.65972 2.84085 7.83497C3.02394 8.01022 3.13145 8.25266 3.13972 8.50896L3.51777 20.2118C3.5366 20.7114 3.74403 21.1841 4.0965 21.5306C4.44898 21.8771 4.91906 22.0705 5.40803 22.0701H12.591C13.0806 22.0705 13.5512 21.8765 13.9038 21.5292C14.2564 21.1819 14.4634 20.7082 14.4813 20.2079L14.8593 8.50896C14.8676 8.25266 14.9751 8.01022 15.1582 7.83497C15.3413 7.65972 15.585 7.56601 15.8357 7.57447C16.0863 7.58293 16.3234 7.69285 16.4948 7.88007C16.6662 8.06728 16.7579 8.31644 16.7496 8.57274ZM18 4.67921C18 4.9355 17.9004 5.18131 17.7232 5.36254C17.5459 5.54377 17.3055 5.64558 17.0549 5.64558H0.94513C0.694466 5.64558 0.454068 5.54377 0.276822 5.36254C0.0995756 5.18131 0 4.9355 0 4.67921C0 4.42291 0.0995756 4.17711 0.276822 3.99587C0.454068 3.81464 0.694466 3.71283 0.94513 3.71283H3.87503C4.17449 3.71365 4.46355 3.60053 4.68594 3.39547C4.90832 3.19041 5.04814 2.90808 5.07818 2.60343C5.14793 1.88878 5.47538 1.22627 5.99675 0.744997C6.51812 0.263719 7.19604 -0.00185864 7.89845 9.79218e-06H10.1006C10.803 -0.00185864 11.4809 0.263719 12.0023 0.744997C12.5237 1.22627 12.8511 1.88878 12.9209 2.60343C12.9509 2.90808 13.0907 3.19041 13.3131 3.39547C13.5355 3.60053 13.8246 3.71365 14.124 3.71283H17.0539C17.3046 3.71283 17.545 3.81464 17.7222 3.99587C17.8995 4.17711 17.9991 4.42291 17.9991 4.67921H18ZM6.71893 3.71283H11.282C11.1578 3.42267 11.0766 3.11521 11.041 2.80057C11.0176 2.56237 10.9085 2.34153 10.735 2.18084C10.5614 2.02016 10.3357 1.93107 10.1015 1.93083H7.8994C7.66526 1.93107 7.43954 2.02016 7.26597 2.18084C7.09241 2.34153 6.98335 2.56237 6.95994 2.80057C6.92405 3.11526 6.84251 3.42272 6.71798 3.71283H6.71893ZM7.67067 18.3544V10.1257C7.67067 9.86941 7.5711 9.6236 7.39385 9.44237C7.21661 9.26114 6.97621 9.15933 6.72554 9.15933C6.47488 9.15933 6.23448 9.26114 6.05724 9.44237C5.87999 9.6236 5.78041 9.86941 5.78041 10.1257V18.3583C5.78041 18.6146 5.87999 18.8604 6.05724 19.0416C6.23448 19.2228 6.47488 19.3246 6.72554 19.3246C6.97621 19.3246 7.21661 19.2228 7.39385 19.0416C7.5711 18.8604 7.67067 18.6146 7.67067 18.3583V18.3544ZM12.2205 18.3544V10.1257C12.2205 9.86941 12.121 9.6236 11.9437 9.44237C11.7665 9.26114 11.5261 9.15933 11.2754 9.15933C11.0247 9.15933 10.7843 9.26114 10.6071 9.44237C10.4298 9.6236 10.3303 9.86941 10.3303 10.1257V18.3583C10.3303 18.6146 10.4298 18.8604 10.6071 19.0416C10.7843 19.2228 11.0247 19.3246 11.2754 19.3246C11.5261 19.3246 11.7665 19.2228 11.9437 19.0416C12.121 18.8604 12.2205 18.6146 12.2205 18.3583V18.3544Z" fill="#F00000"/>
</svg>
